<svg version="1.1" id="Layer_1" xmlns="http://www.w3.org/2000/svg" xmlns:xlink="http://www.w3.org/1999/xlink" x="0px" y="0px"
	 width="100%" viewBox="0 0 225 225" enable-background="new 0 0 225 225" xml:space="preserve">
<path fill="#FEFFFF" opacity="1.000000" stroke="none" 
	d="
M200.000000,226.000000 
	C133.333344,226.000000 67.166672,226.000000 1.000009,226.000000 
	C1.000006,151.000015 1.000006,76.000015 1.000003,1.000019 
	C75.999985,1.000013 150.999969,1.000013 225.999969,1.000006 
	C225.999969,75.999985 225.999969,150.999969 225.999985,225.999969 
	C217.500000,226.000000 209.000015,226.000000 200.000000,226.000000 
M50.627167,105.133331 
	C50.627167,112.363495 50.627167,119.593666 50.627167,126.739525 
	C58.581028,126.739525 65.810921,126.739525 73.040817,126.739525 
	C73.293442,126.284691 73.546059,125.829857 73.798683,125.375015 
	C72.633286,124.532898 71.504776,123.031624 70.296043,122.963997 
	C65.353271,122.687447 60.386013,122.848648 55.344658,122.848648 
	C55.344658,120.887955 55.344658,119.306671 55.344658,117.372124 
	C59.630699,117.372124 63.613098,117.520020 67.571007,117.273994 
	C68.635223,117.207840 69.624969,115.943565 70.648895,115.229279 
	C69.636635,114.493706 68.659050,113.187477 67.605988,113.123505 
	C63.522354,112.875404 59.414700,113.022552 55.272858,113.022552 
	C55.272858,111.016129 55.272858,109.606064 55.272858,107.762726 
	C61.254086,107.762726 66.994164,107.762726 73.008141,107.762726 
	C73.008141,106.106178 73.008141,104.886719 73.008141,102.897560 
	C65.379715,103.368141 58.065689,103.819328 50.627167,105.133331 
M114.160370,115.567780 
	C115.032356,124.571159 117.655159,127.041412 126.364235,127.051346 
	C130.697052,127.056290 135.033356,126.944809 139.361588,127.085587 
	C142.892502,127.200424 143.325027,125.761093 141.961517,122.812492 
	C136.470230,122.812492 131.149994,122.891785 125.833252,122.789230 
	C120.941116,122.694855 118.696640,120.455307 118.558998,115.839096 
	C118.415947,111.041359 121.238052,107.916885 126.066093,107.799133 
	C130.562500,107.689468 135.071106,107.934990 139.558502,107.709175 
	C140.600739,107.656723 141.578644,106.326088 142.586151,105.583580 
	C141.602737,104.821724 140.657089,103.468254 139.629242,103.402679 
	C135.646149,103.148560 131.636902,103.306725 127.637390,103.307182 
	C119.246712,103.308144 115.505333,106.487457 114.160370,115.567780 
M26.830153,112.458138 
	C26.581440,109.543327 26.332729,106.628517 26.091961,103.806808 
	C23.141100,102.882256 21.767111,103.485100 21.833349,106.647247 
	C21.972050,113.268707 21.875401,119.895088 21.875401,126.763359 
	C23.541248,126.763359 24.781506,126.763359 26.179066,126.763359 
	C26.339039,123.734993 26.492949,120.821419 26.649557,117.856750 
	C31.798641,117.856750 36.498173,117.856750 41.566139,117.856750 
	C41.566139,121.083626 41.566139,123.868973 41.566139,126.744827 
	C43.191830,126.744827 44.428249,126.744827 45.754929,126.744827 
	C45.754929,118.906174 45.754929,111.335320 45.754929,103.355377 
	C38.073112,103.681023 43.495239,110.069839 40.275169,112.907829 
	C36.593258,112.907829 32.139324,112.907829 26.830153,112.458138 
M165.405457,105.925461 
	C163.644852,102.399529 161.013519,101.918015 159.047302,105.210693 
	C154.918381,112.125092 151.337280,119.366623 147.531281,126.473854 
	C147.992325,126.935013 148.453354,127.396172 148.914383,127.857330 
	C150.625366,126.451691 152.850922,125.359596 153.938782,123.574272 
	C156.114883,120.002953 157.462860,116.683144 163.052490,117.051147 
	C167.945618,117.373299 168.529404,120.709000 170.038605,123.566559 
	C171.510696,126.353897 172.929352,128.340515 176.537552,126.175835 
	C172.962143,119.638054 169.380371,113.088661 165.405457,105.925461 
M203.107117,126.924675 
	C205.062866,124.027969 204.073669,122.843964 200.806458,122.868256 
	C196.030914,122.903763 191.254929,122.877388 185.947723,122.877388 
	C185.947723,116.223740 185.947723,110.010406 185.947723,102.429672 
	C183.810913,103.752487 181.708267,104.424278 181.682617,105.167740 
	C181.433762,112.379112 181.533127,119.602501 181.533127,127.011925 
	C188.900742,127.011925 195.533752,127.011925 203.107117,126.924675 
M77.964897,125.269180 
	C78.582878,125.849113 79.192001,126.921913 79.820221,126.933212 
	C86.577705,127.054787 93.338203,127.008965 99.963242,127.008965 
	C101.276848,123.474640 99.807770,122.812729 97.066139,122.878075 
	C92.171623,122.994728 87.272324,122.910912 82.176003,122.910912 
	C82.176003,117.081566 82.304321,112.104866 82.087761,107.143219 
	C82.032089,105.867744 80.889824,104.639709 80.246735,103.389877 
	C79.477707,104.715523 78.104652,106.014641 78.045059,107.371452 
	C77.797516,113.007050 77.946205,118.660042 77.964897,125.269180 
M109.778442,118.435165 
	C109.778442,113.643990 109.778442,108.852806 109.778442,104.061630 
	C109.258698,103.945908 108.738960,103.830177 108.219215,103.714455 
	C107.170654,105.381531 105.359322,106.986992 105.218719,108.727409 
	C104.821152,113.648865 105.196007,118.627388 105.096352,123.580009 
	C105.023865,127.182762 106.442238,127.944855 109.773682,126.261024 
	C109.773682,123.995438 109.773682,121.699387 109.778442,118.435165 
z"/>
<path fill="#14B15C" opacity="1.000000" stroke="none" 
	d="
M50.689415,104.701927 
	C58.065689,103.819328 65.379715,103.368141 73.008141,102.897560 
	C73.008141,104.886719 73.008141,106.106178 73.008141,107.762726 
	C66.994164,107.762726 61.254086,107.762726 55.272858,107.762726 
	C55.272858,109.606064 55.272858,111.016129 55.272858,113.022552 
	C59.414700,113.022552 63.522354,112.875404 67.605988,113.123505 
	C68.659050,113.187477 69.636635,114.493706 70.648895,115.229279 
	C69.624969,115.943565 68.635223,117.207840 67.571007,117.273994 
	C63.613098,117.520020 59.630699,117.372124 55.344658,117.372124 
	C55.344658,119.306671 55.344658,120.887955 55.344658,122.848648 
	C60.386013,122.848648 65.353271,122.687447 70.296043,122.963997 
	C71.504776,123.031624 72.633286,124.532898 73.798683,125.375015 
	C73.546059,125.829857 73.293442,126.284691 73.040817,126.739525 
	C65.810921,126.739525 58.581028,126.739525 50.627167,126.739525 
	C50.627167,119.593666 50.627167,112.363495 50.689415,104.701927 
z"/>
<path fill="#1CB361" opacity="1.000000" stroke="none" 
	d="
M114.177071,115.151665 
	C115.505333,106.487457 119.246712,103.308144 127.637390,103.307182 
	C131.636902,103.306725 135.646149,103.148560 139.629242,103.402679 
	C140.657089,103.468254 141.602737,104.821724 142.586151,105.583580 
	C141.578644,106.326088 140.600739,107.656723 139.558502,107.709175 
	C135.071106,107.934990 130.562500,107.689468 126.066093,107.799133 
	C121.238052,107.916885 118.415947,111.041359 118.558998,115.839096 
	C118.696640,120.455307 120.941116,122.694855 125.833252,122.789230 
	C131.149994,122.891785 136.470230,122.812492 141.961517,122.812492 
	C143.325027,125.761093 142.892502,127.200424 139.361588,127.085587 
	C135.033356,126.944809 130.697052,127.056290 126.364235,127.051346 
	C117.655159,127.041412 115.032356,124.571159 114.177071,115.151665 
z"/>
<path fill="#0CAE57" opacity="1.000000" stroke="none" 
	d="
M27.257772,112.682983 
	C32.139324,112.907829 36.593258,112.907829 40.275169,112.907829 
	C43.495239,110.069839 38.073112,103.681023 45.754929,103.355377 
	C45.754929,111.335320 45.754929,118.906174 45.754929,126.744827 
	C44.428249,126.744827 43.191830,126.744827 41.566139,126.744827 
	C41.566139,123.868973 41.566139,121.083626 41.566139,117.856750 
	C36.498173,117.856750 31.798641,117.856750 26.649557,117.856750 
	C26.492949,120.821419 26.339039,123.734993 26.179066,126.763359 
	C24.781506,126.763359 23.541248,126.763359 21.875401,126.763359 
	C21.875401,119.895088 21.972050,113.268707 21.833349,106.647247 
	C21.767111,103.485100 23.141100,102.882256 26.091961,103.806808 
	C26.332729,106.628517 26.581440,109.543327 27.257772,112.682983 
z"/>
<path fill="#16AF5C" opacity="1.000000" stroke="none" 
	d="
M165.602036,106.232361 
	C169.380371,113.088661 172.962143,119.638054 176.537552,126.175835 
	C172.929352,128.340515 171.510696,126.353897 170.038605,123.566559 
	C168.529404,120.709000 167.945618,117.373299 163.052490,117.051147 
	C157.462860,116.683144 156.114883,120.002953 153.938782,123.574272 
	C152.850922,125.359596 150.625366,126.451691 148.914383,127.857330 
	C148.453354,127.396172 147.992325,126.935013 147.531281,126.473854 
	C151.337280,119.366623 154.918381,112.125092 159.047302,105.210693 
	C161.013519,101.918015 163.644852,102.399529 165.602036,106.232361 
z"/>
<path fill="#0EAD57" opacity="1.000000" stroke="none" 
	d="
M202.636932,126.968300 
	C195.533752,127.011925 188.900742,127.011925 181.533127,127.011925 
	C181.533127,119.602501 181.433762,112.379112 181.682617,105.167740 
	C181.708267,104.424278 183.810913,103.752487 185.947723,102.429672 
	C185.947723,110.010406 185.947723,116.223740 185.947723,122.877388 
	C191.254929,122.877388 196.030914,122.903763 200.806458,122.868256 
	C204.073669,122.843964 205.062866,124.027969 202.636932,126.968300 
z"/>
<path fill="#0DAF56" opacity="1.000000" stroke="none" 
	d="
M77.957184,124.787918 
	C77.946205,118.660042 77.797516,113.007050 78.045059,107.371452 
	C78.104652,106.014641 79.477707,104.715523 80.246735,103.389877 
	C80.889824,104.639709 82.032089,105.867744 82.087761,107.143219 
	C82.304321,112.104866 82.176003,117.081566 82.176003,122.910912 
	C87.272324,122.910912 92.171623,122.994728 97.066139,122.878075 
	C99.807770,122.812729 101.276848,123.474640 99.963242,127.008965 
	C93.338203,127.008965 86.577705,127.054787 79.820221,126.933212 
	C79.192001,126.921913 78.582878,125.849113 77.957184,124.787918 
z"/>
<path fill="#30BA6F" opacity="1.000000" stroke="none" 
	d="
M109.776062,118.919250 
	C109.773682,121.699387 109.773682,123.995438 109.773682,126.261024 
	C106.442238,127.944855 105.023865,127.182762 105.096352,123.580009 
	C105.196007,118.627388 104.821152,113.648865 105.218719,108.727409 
	C105.359322,106.986992 107.170654,105.381531 108.219215,103.714455 
	C108.738960,103.830177 109.258698,103.945908 109.778442,104.061630 
	C109.778442,108.852806 109.778442,113.643990 109.776062,118.919250 
z"/>
</svg>