<svg version="1.1" id="Layer_1" xmlns="http://www.w3.org/2000/svg" xmlns:xlink="http://www.w3.org/1999/xlink" x="0px" y="0px"
	 width="100%" viewBox="0 0 318 159" enable-background="new 0 0 318 159" xml:space="preserve">
<path fill="#FEFEFE" opacity="1.000000" stroke="none" 
	d="
M205.000000,160.000000 
	C136.666672,160.000000 68.833351,160.000000 1.000018,160.000000 
	C1.000012,107.000015 1.000012,54.000031 1.000006,1.000032 
	C106.999969,1.000022 212.999939,1.000022 318.999939,1.000011 
	C318.999939,53.999966 318.999939,106.999931 318.999969,159.999939 
	C281.166656,160.000000 243.333328,160.000000 205.000000,160.000000 
M27.977539,112.583069 
	C28.316038,112.727951 28.654537,112.872841 29.657364,113.284645 
	C34.164463,118.050972 38.232368,114.548576 42.522873,112.267975 
	C39.297916,108.745529 35.209656,109.129593 31.088942,109.269165 
	C31.199759,108.335602 31.310577,107.402039 31.421396,106.468468 
	C31.060003,106.361061 30.698612,106.253654 30.337221,106.146248 
	C29.571941,107.748001 28.806662,109.349747 27.686241,110.888771 
	C27.686241,110.888771 27.328659,110.841896 26.894009,110.252159 
	C24.849945,108.154419 22.856762,108.785553 21.692953,110.941010 
	C21.088045,112.061348 21.709614,113.843903 21.777149,115.327324 
	C23.472324,114.952660 25.167500,114.577995 26.962635,113.606804 
	C26.975662,113.405609 26.988691,113.204422 27.211418,112.599243 
	C27.211418,112.599243 27.416208,112.192757 27.699574,112.157959 
	C27.699574,112.157959 27.984028,112.116585 27.977539,112.583069 
M113.599541,114.939674 
	C113.774681,114.308968 113.949814,113.678268 114.148514,112.296410 
	C113.448647,111.517448 112.748779,110.738487 112.000656,109.998970 
	C112.000656,109.998970 112.039925,109.950302 111.812263,109.239059 
	C110.299278,110.068611 108.530327,110.654266 107.396049,111.844666 
	C106.925316,112.338692 107.589569,115.022415 108.121597,115.153625 
	C109.649864,115.530525 111.374161,115.112526 113.599541,114.939674 
M223.607224,99.009903 
	C223.793228,98.644173 223.979233,98.278442 224.323654,97.158516 
	C224.323654,95.581085 224.323654,94.003654 224.323654,91.839729 
	C217.949768,91.839729 212.061539,91.839729 205.754288,91.839729 
	C205.754288,81.337013 205.754288,71.423950 205.754288,61.452393 
	C202.735718,61.452393 200.188721,61.452393 197.218277,61.452393 
	C197.218277,67.948128 197.218292,74.074257 197.218292,80.200378 
	C197.218292,86.443375 197.218277,92.686363 197.218277,99.088989 
	C206.368912,99.088989 214.664261,99.088989 223.607224,99.009903 
M78.532631,99.009583 
	C78.663162,98.681740 78.793701,98.353905 79.061378,97.153175 
	C78.979111,95.583664 78.896843,94.014153 78.786636,91.911530 
	C71.851028,91.911530 65.448219,91.911530 59.049240,91.911530 
	C59.049240,88.743134 59.049240,86.149788 59.049240,83.032455 
	C65.054916,83.032455 70.800125,83.032455 76.791595,83.032455 
	C76.791595,80.604294 76.791595,78.703690 76.791595,76.049637 
	C70.724098,76.049637 64.862526,76.049637 59.161583,76.049637 
	C59.161583,73.055008 59.161583,70.818680 59.161583,67.922150 
	C65.910446,67.922150 72.283836,67.922150 78.508469,67.922150 
	C78.508469,65.328552 78.508469,63.422482 78.508469,61.403366 
	C68.921310,61.403366 59.699108,61.403366 50.327461,61.403366 
	C50.327461,74.088676 50.327461,86.459320 50.327461,99.067001 
	C59.755608,99.067001 68.865173,99.067001 78.532631,99.009583 
M228.040863,98.587090 
	C228.369308,98.748772 228.697754,98.910446 229.950729,99.221588 
	C234.943787,99.231491 239.938187,99.319115 244.929626,99.234146 
	C253.682022,99.085159 259.156281,94.467682 260.994904,85.832550 
	C263.186462,75.539932 259.953125,66.071724 252.377350,62.988724 
	C244.557617,59.806442 236.281586,60.518845 227.929489,62.501030 
	C227.953339,62.667236 227.977173,62.833443 227.858017,63.928162 
	C227.905884,75.285629 227.953751,86.643089 228.040863,98.587090 
M116.089012,62.503349 
	C116.027679,62.345806 115.966354,62.188267 115.473587,61.354435 
	C113.224579,61.354435 110.975571,61.354435 108.004669,61.354435 
	C108.004669,69.363052 108.004669,76.962761 108.004669,84.562477 
	C103.119476,78.303787 98.821968,72.155617 95.343422,65.574554 
	C92.580627,60.347649 88.830528,60.509796 84.309097,61.674080 
	C84.309097,74.343575 84.309097,86.730148 84.309097,99.166061 
	C87.009026,99.166061 89.377304,99.166061 92.225204,99.166061 
	C92.225204,91.088699 92.225204,83.431122 92.225204,74.439468 
	C95.412827,79.552666 97.805412,83.510452 100.319443,87.389534 
	C102.828438,91.260834 105.459091,95.053284 108.501579,99.128494 
	C108.676521,99.111687 108.851463,99.094872 109.866859,99.224648 
	C111.568611,99.175117 113.270370,99.125595 115.564255,99.019173 
	C115.715431,98.677315 115.866608,98.335449 116.163353,97.066162 
	C116.114983,85.712631 116.066620,74.359100 116.089012,62.503349 
M155.081848,80.504112 
	C155.163727,81.665733 155.140274,82.846153 155.343750,83.986069 
	C157.358475,95.272186 164.616074,100.868378 176.205734,100.116928 
	C185.458374,99.516998 192.141068,92.281067 192.876495,82.066071 
	C193.671021,71.029930 187.301880,62.233318 177.189163,60.399834 
	C165.494064,58.279457 156.601974,66.021248 155.081848,80.504112 
M33.262489,83.027000 
	C37.285908,85.624084 34.925510,89.584450 35.097672,92.843140 
	C35.489834,100.266251 36.434246,101.108459 43.514881,98.625656 
	C43.514881,86.190491 43.514881,73.798737 43.514881,61.373909 
	C40.666256,61.373909 38.237038,61.373909 35.223217,61.373909 
	C35.223217,66.202438 35.223217,70.775566 35.223217,75.569977 
	C29.911224,75.569977 25.190458,75.569977 19.935711,75.569977 
	C19.935711,70.710434 19.935711,66.130470 19.935711,61.424614 
	C16.839821,61.424614 14.284427,61.424614 11.985583,61.424614 
	C11.985583,74.152306 11.985583,86.547371 11.985583,99.121788 
	C14.858592,99.251671 17.264444,99.360443 20.263210,99.496017 
	C20.263210,93.633011 20.263210,88.404564 20.263210,82.996849 
	C24.664064,82.996849 28.486048,82.996849 33.262489,83.027000 
M132.370773,74.252838 
	C129.123199,72.412056 129.126663,70.214264 131.903076,68.033234 
	C134.548126,65.955406 140.518661,66.414268 141.809875,69.375366 
	C143.954605,74.293892 147.355667,72.777435 150.903122,72.449104 
	C151.716171,67.810265 149.659790,64.238792 146.009277,62.863144 
	C141.829330,61.287987 136.983383,60.338867 132.582916,60.757782 
	C125.979767,61.386391 122.211624,65.653687 121.879684,70.763962 
	C121.485725,76.828972 123.955482,79.848038 131.374344,82.221710 
	C134.699036,83.285454 138.173752,83.960495 141.379181,85.295189 
	C144.860626,86.744789 145.208176,90.314720 142.375076,92.367706 
	C138.949249,94.850220 131.854172,94.350494 130.217346,90.683693 
	C127.899094,85.490334 124.425774,86.683014 120.553360,87.272797 
	C120.618767,92.541626 122.935989,96.259590 127.372528,98.286728 
	C133.396744,101.039337 139.725479,101.099998 145.811279,98.551079 
	C150.544495,96.568680 153.059448,92.611542 152.771942,87.437958 
	C152.489456,82.355064 149.290833,79.299286 144.598053,77.832954 
	C140.791199,76.643448 136.916199,75.672081 132.370773,74.252838 
M300.099396,68.644585 
	C306.266693,88.713409 298.518250,103.980583 276.682800,114.783630 
	C283.734833,116.842972 297.374329,109.498398 303.782684,99.186134 
	C312.018341,85.933464 310.460480,68.086708 299.922272,56.512840 
	C293.001190,48.911644 283.235809,44.405399 278.379822,46.769676 
	C288.641571,50.775749 295.851318,57.740799 300.099396,68.644585 
M264.858459,61.119953 
	C264.013062,63.181507 263.167633,65.243065 261.916016,68.295158 
	C266.903687,68.295158 270.298401,68.295158 274.229004,68.295158 
	C274.229004,78.916336 274.229004,88.968658 274.229004,98.883301 
	C282.430725,100.600670 282.831879,100.286644 282.821259,92.855370 
	C282.809692,84.773476 282.818634,76.691551 282.818634,68.043198 
	C286.932770,68.043198 290.323059,68.043198 293.828918,68.043198 
	C293.828918,65.530991 293.828918,63.607498 293.828918,61.092163 
	C284.323242,61.092163 275.059235,61.092163 264.858459,61.119953 
M251.909348,57.825504 
	C254.261856,58.693745 256.614349,59.561985 258.966858,60.430222 
	C254.168457,50.974522 242.786331,44.683662 237.302246,46.204086 
	C241.644714,49.605522 246.533051,53.434528 251.909348,57.825504 
M237.718719,113.174255 
	C236.555099,113.613480 235.391495,114.052696 233.639832,114.713890 
	C241.985733,116.308693 254.409119,109.538315 259.297882,101.214005 
	C255.857010,100.465973 253.395493,101.100632 250.669037,103.912994 
	C247.181686,107.510208 242.539917,109.988251 237.718719,113.174255 
M263.279785,46.469257 
	C261.317139,46.261395 259.354462,46.053535 257.772125,45.885952 
	C262.567200,49.535843 267.675140,52.702805 271.821381,56.834778 
	C274.560699,59.564663 276.978302,60.399216 280.872528,59.440281 
	C276.553162,53.074280 270.827301,49.170013 263.279785,46.469257 
M272.819427,103.013901 
	C267.305115,107.198624 261.790802,111.383347 257.019592,115.004143 
	C263.501068,116.224655 276.493591,109.051445 280.661011,100.226059 
	C277.767120,101.084137 275.525909,101.748688 272.819427,103.013901 
M284.013214,83.470825 
	C284.013214,87.070000 284.013214,90.669167 284.013214,94.268341 
	C289.132904,84.957649 289.083496,73.364136 284.013214,69.263771 
	C284.013214,74.069153 284.013214,78.280022 284.013214,83.470825 
M11.053496,114.415543 
	C13.893159,117.361420 16.751638,116.364998 18.779598,113.759705 
	C19.782097,112.471802 20.059368,109.796936 19.401426,108.307785 
	C18.904449,107.182961 16.264219,106.245750 14.836113,106.528648 
	C13.665181,106.760605 12.725258,108.833130 11.966877,110.242561 
	C11.437842,111.225754 11.388682,112.467171 11.053496,114.415543 
M88.492638,106.717697 
	C86.661522,106.920441 83.713776,106.521210 83.216759,107.443161 
	C81.925438,109.838531 81.711136,112.814514 81.185760,115.053024 
	C85.333107,113.499214 88.588875,112.279427 91.667969,111.125832 
	C91.025093,110.106873 90.074722,108.600555 88.492638,106.717697 
M63.585693,113.376907 
	C63.045372,112.804962 62.570221,112.146706 61.951073,111.679153 
	C60.690281,110.727066 59.351810,109.877846 58.045341,108.986244 
	C56.834736,110.839737 55.624130,112.693230 54.413525,114.546722 
	C54.816479,115.162209 55.219437,115.777695 55.622391,116.393181 
	C58.445808,115.510414 61.269222,114.627647 63.585693,113.376907 
M101.887192,110.754936 
	C99.469505,108.121368 96.913628,107.744926 95.403877,111.299576 
	C94.947769,112.373444 96.394196,115.449310 97.492325,115.760216 
	C100.503937,116.612846 102.084770,114.695053 101.887192,110.754936 
z"/>
<path fill="#8F8F8F" opacity="1.000000" stroke="none" 
	d="
M108.036400,98.880310 
	C105.459091,95.053284 102.828438,91.260834 100.319443,87.389534 
	C97.805412,83.510452 95.412827,79.552666 92.225204,74.439468 
	C92.225204,83.431122 92.225204,91.088699 92.225204,99.166061 
	C89.377304,99.166061 87.009026,99.166061 84.309097,99.166061 
	C84.309097,86.730148 84.309097,74.343575 84.309097,61.674080 
	C88.830528,60.509796 92.580627,60.347649 95.343422,65.574554 
	C98.821968,72.155617 103.119476,78.303787 108.004669,84.562477 
	C108.004669,76.962761 108.004669,69.363052 108.004669,61.354435 
	C110.975571,61.354435 113.224579,61.354435 115.536377,61.792862 
	C115.738853,62.489380 115.878555,62.747471 116.018250,63.005562 
	C116.066620,74.359100 116.114983,85.712631 115.857491,97.646149 
	C115.358459,98.509453 115.165291,98.792763 114.972122,99.076073 
	C113.270370,99.125595 111.568611,99.175117 109.373314,98.977036 
	C108.598648,98.779716 108.317520,98.830009 108.036400,98.880310 
z"/>
<path fill="#8F8F8F" opacity="1.000000" stroke="none" 
	d="
M155.087265,80.070976 
	C156.601974,66.021248 165.494064,58.279457 177.189163,60.399834 
	C187.301880,62.233318 193.671021,71.029930 192.876495,82.066071 
	C192.141068,92.281067 185.458374,99.516998 176.205734,100.116928 
	C164.616074,100.868378 157.358475,95.272186 155.343750,83.986069 
	C155.140274,82.846153 155.163727,81.665733 155.087265,80.070976 
M164.641266,86.365662 
	C166.507858,91.407234 170.122574,93.593468 175.456985,93.047913 
	C180.100281,92.573036 182.811310,89.534439 183.534088,85.459427 
	C184.176804,81.835800 183.932053,77.853897 183.152420,74.229446 
	C182.166534,69.646217 178.477570,67.433701 173.923752,67.430298 
	C169.333130,67.426872 165.741684,69.756981 164.803101,74.336403 
	C164.058548,77.969215 164.442307,81.833267 164.641266,86.365662 
z"/>
<path fill="#8E8E8E" opacity="1.000000" stroke="none" 
	d="
M228.117798,62.033825 
	C236.281586,60.518845 244.557617,59.806442 252.377350,62.988724 
	C259.953125,66.071724 263.186462,75.539932 260.994904,85.832550 
	C259.156281,94.467682 253.682022,99.085159 244.929626,99.234146 
	C239.938187,99.319115 234.943787,99.231491 229.380432,98.913727 
	C228.540619,98.404099 228.271118,98.202332 228.001633,98.000565 
	C227.953751,86.643089 227.905884,75.285629 228.093933,63.387604 
	C228.403519,62.753113 228.559235,62.610771 228.537140,62.573368 
	C228.422302,62.378796 228.262161,62.210968 228.117798,62.033825 
M236.092484,81.484695 
	C236.092484,84.918755 236.092484,88.352814 236.092484,92.025261 
	C242.280640,91.956444 248.294403,93.912285 251.784760,87.358879 
	C254.005371,83.189552 253.495621,74.800354 250.525772,71.652145 
	C246.518646,67.404388 241.432892,67.948578 236.092606,68.448059 
	C236.092606,72.858963 236.092606,76.677177 236.092484,81.484695 
z"/>
<path fill="#8F8F8F" opacity="1.000000" stroke="none" 
	d="
M32.785263,83.011925 
	C28.486048,82.996849 24.664064,82.996849 20.263210,82.996849 
	C20.263210,88.404564 20.263210,93.633011 20.263210,99.496017 
	C17.264444,99.360443 14.858592,99.251671 11.985583,99.121788 
	C11.985583,86.547371 11.985583,74.152306 11.985583,61.424614 
	C14.284427,61.424614 16.839821,61.424614 19.935711,61.424614 
	C19.935711,66.130470 19.935711,70.710434 19.935711,75.569977 
	C25.190458,75.569977 29.911224,75.569977 35.223217,75.569977 
	C35.223217,70.775566 35.223217,66.202438 35.223217,61.373909 
	C38.237038,61.373909 40.666256,61.373909 43.514881,61.373909 
	C43.514881,73.798737 43.514881,86.190491 43.514881,98.625656 
	C36.434246,101.108459 35.489834,100.266251 35.097672,92.843140 
	C34.925510,89.584450 37.285908,85.624084 32.785263,83.011925 
z"/>
<path fill="#8F8F8F" opacity="1.000000" stroke="none" 
	d="
M132.721100,74.428406 
	C136.916199,75.672081 140.791199,76.643448 144.598053,77.832954 
	C149.290833,79.299286 152.489456,82.355064 152.771942,87.437958 
	C153.059448,92.611542 150.544495,96.568680 145.811279,98.551079 
	C139.725479,101.099998 133.396744,101.039337 127.372528,98.286728 
	C122.935989,96.259590 120.618767,92.541626 120.553360,87.272797 
	C124.425774,86.683014 127.899094,85.490334 130.217346,90.683693 
	C131.854172,94.350494 138.949249,94.850220 142.375076,92.367706 
	C145.208176,90.314720 144.860626,86.744789 141.379181,85.295189 
	C138.173752,83.960495 134.699036,83.285454 131.374344,82.221710 
	C123.955482,79.848038 121.485725,76.828972 121.879684,70.763962 
	C122.211624,65.653687 125.979767,61.386391 132.582916,60.757782 
	C136.983383,60.338867 141.829330,61.287987 146.009277,62.863144 
	C149.659790,64.238792 151.716171,67.810265 150.903122,72.449104 
	C147.355667,72.777435 143.954605,74.293892 141.809875,69.375366 
	C140.518661,66.414268 134.548126,65.955406 131.903076,68.033234 
	C129.126663,70.214264 129.123199,72.412056 132.721100,74.428406 
z"/>
<path fill="#909090" opacity="1.000000" stroke="none" 
	d="
M77.974739,99.067001 
	C68.865173,99.067001 59.755608,99.067001 50.327461,99.067001 
	C50.327461,86.459320 50.327461,74.088676 50.327461,61.403366 
	C59.699108,61.403366 68.921310,61.403366 78.508469,61.403366 
	C78.508469,63.422482 78.508469,65.328552 78.508469,67.922150 
	C72.283836,67.922150 65.910446,67.922150 59.161583,67.922150 
	C59.161583,70.818680 59.161583,73.055008 59.161583,76.049637 
	C64.862526,76.049637 70.724098,76.049637 76.791595,76.049637 
	C76.791595,78.703690 76.791595,80.604294 76.791595,83.032455 
	C70.800125,83.032455 65.054916,83.032455 59.049240,83.032455 
	C59.049240,86.149788 59.049240,88.743134 59.049240,91.911530 
	C65.448219,91.911530 71.851028,91.911530 78.786636,91.911530 
	C78.896843,94.014153 78.979111,95.583664 78.778595,97.704941 
	C78.239540,98.473686 78.065849,98.743790 77.974739,99.067001 
z"/>
<path fill="#A2D2A1" opacity="1.000000" stroke="none" 
	d="
M300.001160,68.261993 
	C295.851318,57.740799 288.641571,50.775749 278.379822,46.769676 
	C283.235809,44.405399 293.001190,48.911644 299.922272,56.512840 
	C310.460480,68.086708 312.018341,85.933464 303.782684,99.186134 
	C297.374329,109.498398 283.734833,116.842972 276.682800,114.783630 
	C298.518250,103.980583 306.266693,88.713409 300.001160,68.261993 
z"/>
<path fill="#919191" opacity="1.000000" stroke="none" 
	d="
M265.326843,61.106056 
	C275.059235,61.092163 284.323242,61.092163 293.828918,61.092163 
	C293.828918,63.607498 293.828918,65.530991 293.828918,68.043198 
	C290.323059,68.043198 286.932770,68.043198 282.818634,68.043198 
	C282.818634,76.691551 282.809692,84.773476 282.821259,92.855370 
	C282.831879,100.286644 282.430725,100.600670 274.229004,98.883301 
	C274.229004,88.968658 274.229004,78.916336 274.229004,68.295158 
	C270.298401,68.295158 266.903687,68.295158 261.916016,68.295158 
	C263.167633,65.243065 264.013062,63.181507 265.326843,61.106056 
z"/>
<path fill="#939393" opacity="1.000000" stroke="none" 
	d="
M222.959625,99.088989 
	C214.664261,99.088989 206.368912,99.088989 197.218277,99.088989 
	C197.218277,92.686363 197.218292,86.443375 197.218292,80.200378 
	C197.218292,74.074257 197.218277,67.948128 197.218277,61.452393 
	C200.188721,61.452393 202.735718,61.452393 205.754288,61.452393 
	C205.754288,71.423950 205.754288,81.337013 205.754288,91.839729 
	C212.061539,91.839729 217.949768,91.839729 224.323654,91.839729 
	C224.323654,94.003654 224.323654,95.581085 223.983368,97.665283 
	C223.415268,98.477692 223.187439,98.783340 222.959625,99.088989 
z"/>
<path fill="#16AA45" opacity="1.000000" stroke="none" 
	d="
M251.665375,57.544518 
	C246.533051,53.434528 241.644714,49.605522 237.302246,46.204086 
	C242.786331,44.683662 254.168457,50.974522 258.966858,60.430222 
	C256.614349,59.561985 254.261856,58.693745 251.665375,57.544518 
z"/>
<path fill="#11A942" opacity="1.000000" stroke="none" 
	d="
M238.057190,113.061417 
	C242.539917,109.988251 247.181686,107.510208 250.669037,103.912994 
	C253.395493,101.100632 255.857010,100.465973 259.297882,101.214005 
	C254.409119,109.538315 241.985733,116.308693 233.639832,114.713890 
	C235.391495,114.052696 236.555099,113.613480 238.057190,113.061417 
z"/>
<path fill="#68BF73" opacity="1.000000" stroke="none" 
	d="
M263.621521,46.605743 
	C270.827301,49.170013 276.553162,53.074280 280.872528,59.440281 
	C276.978302,60.399216 274.560699,59.564663 271.821381,56.834778 
	C267.675140,52.702805 262.567200,49.535843 257.772125,45.885952 
	C259.354462,46.053535 261.317139,46.261395 263.621521,46.605743 
z"/>
<path fill="#63BD6E" opacity="1.000000" stroke="none" 
	d="
M273.052063,102.713570 
	C275.525909,101.748688 277.767120,101.084137 280.661011,100.226059 
	C276.493591,109.051445 263.501068,116.224655 257.019592,115.004143 
	C261.790802,111.383347 267.305115,107.198624 273.052063,102.713570 
z"/>
<path fill="#6BC074" opacity="1.000000" stroke="none" 
	d="
M284.013214,82.980865 
	C284.013214,78.280022 284.013214,74.069153 284.013214,69.263771 
	C289.083496,73.364136 289.132904,84.957649 284.013214,94.268341 
	C284.013214,90.669167 284.013214,87.070000 284.013214,82.980865 
z"/>
<path fill="#969696" opacity="1.000000" stroke="none" 
	d="
M11.089334,114.004395 
	C11.388682,112.467171 11.437842,111.225754 11.966877,110.242561 
	C12.725258,108.833130 13.665181,106.760605 14.836113,106.528648 
	C16.264219,106.245750 18.904449,107.182961 19.401426,108.307785 
	C20.059368,109.796936 19.782097,112.471802 18.779598,113.759705 
	C16.751638,116.364998 13.893159,117.361420 11.089334,114.004395 
z"/>
<path fill="#969696" opacity="1.000000" stroke="none" 
	d="
M88.808502,106.905968 
	C90.074722,108.600555 91.025093,110.106873 91.667969,111.125832 
	C88.588875,112.279427 85.333107,113.499214 81.185760,115.053024 
	C81.711136,112.814514 81.925438,109.838531 83.216759,107.443161 
	C83.713776,106.521210 86.661522,106.920441 88.808502,106.905968 
z"/>
<path fill="#939393" opacity="1.000000" stroke="none" 
	d="
M31.023930,109.926392 
	C35.209656,109.129593 39.297916,108.745529 42.522873,112.267975 
	C38.232368,114.548576 34.164463,118.050972 29.404325,112.844757 
	C29.775499,111.578712 30.399714,110.752548 31.023930,109.926392 
z"/>
<path fill="#969696" opacity="1.000000" stroke="none" 
	d="
M63.839165,113.560890 
	C61.269222,114.627647 58.445808,115.510414 55.622391,116.393181 
	C55.219437,115.777695 54.816479,115.162209 54.413525,114.546722 
	C55.624130,112.693230 56.834736,110.839737 58.045341,108.986244 
	C59.351810,109.877846 60.690281,110.727066 61.951073,111.679153 
	C62.570221,112.146706 63.045372,112.804962 63.839165,113.560890 
z"/>
<path fill="#989898" opacity="1.000000" stroke="none" 
	d="
M101.959984,111.163391 
	C102.084770,114.695053 100.503937,116.612846 97.492325,115.760216 
	C96.394196,115.449310 94.947769,112.373444 95.403877,111.299576 
	C96.913628,107.744926 99.469505,108.121368 101.959984,111.163391 
z"/>
<path fill="#989898" opacity="1.000000" stroke="none" 
	d="
M112.048912,109.959526 
	C112.748779,110.738487 113.448647,111.517448 113.736237,112.629837 
	C112.119461,113.058922 110.914955,113.154594 108.897827,113.314804 
	C110.883644,114.129684 111.952538,114.568306 113.021423,115.006927 
	C111.374161,115.112526 109.649864,115.530525 108.121597,115.153625 
	C107.589569,115.022415 106.925316,112.338692 107.396049,111.844666 
	C108.530327,110.654266 110.299278,110.068611 111.615707,109.668304 
	C110.834846,110.542915 110.250542,110.988297 109.666237,111.433670 
	C109.989998,111.682014 110.313759,111.930351 110.637520,112.178688 
	C111.107986,111.438965 111.578453,110.699249 112.048912,109.959526 
z"/>
<path fill="#8F8F8F" opacity="1.000000" stroke="none" 
	d="
M27.416208,112.192757 
	C27.416208,112.192757 27.211418,112.599243 26.716652,112.799126 
	C25.316216,113.119354 24.410545,113.239700 23.504875,113.360054 
	C23.517338,113.568214 23.529800,113.776375 23.542265,113.984543 
	C24.649067,114.057472 25.755871,114.130402 26.862675,114.203339 
	C25.167500,114.577995 23.472324,114.952660 21.777149,115.327316 
	C21.709614,113.843903 21.088045,112.061348 21.692953,110.941010 
	C22.856762,108.785553 24.849945,108.154419 27.080349,110.888306 
	C27.316528,111.747208 27.366367,111.969978 27.416208,112.192757 
M25.327908,111.030457 
	C24.819082,110.914673 24.310257,110.798889 23.801432,110.683105 
	C23.767578,111.055130 23.733725,111.427147 23.699871,111.799171 
	C24.264727,111.727989 24.829580,111.656799 25.327908,111.030457 
z"/>
<path fill="#E3E3E3" opacity="1.000000" stroke="none" 
	d="
M31.056435,109.597778 
	C30.399714,110.752548 29.775499,111.578712 29.072163,112.711304 
	C28.654537,112.872841 28.316038,112.727951 27.987587,112.057396 
	C28.012218,111.338310 28.026802,111.144905 28.041384,110.951500 
	C28.806662,109.349747 29.571941,107.748001 30.337221,106.146248 
	C30.698612,106.253654 31.060003,106.361061 31.421396,106.468468 
	C31.310577,107.402039 31.199759,108.335602 31.056435,109.597778 
z"/>
<path fill="#E3E3E3" opacity="1.000000" stroke="none" 
	d="
M113.310486,114.973297 
	C111.952538,114.568306 110.883644,114.129684 108.897827,113.314804 
	C110.914955,113.154594 112.119461,113.058922 113.724457,113.005409 
	C113.949814,113.678268 113.774681,114.308968 113.310486,114.973297 
z"/>
<path fill="#E3E3E3" opacity="1.000000" stroke="none" 
	d="
M26.912655,113.905067 
	C25.755871,114.130402 24.649067,114.057472 23.542265,113.984543 
	C23.529800,113.776375 23.517338,113.568214 23.504875,113.360054 
	C24.410545,113.239700 25.316216,113.119354 26.611805,113.001114 
	C26.988691,113.204422 26.975662,113.405609 26.912655,113.905067 
z"/>
<path fill="#848584" opacity="1.000000" stroke="none" 
	d="
M228.021240,98.293823 
	C228.271118,98.202332 228.540619,98.404099 228.918152,98.839005 
	C228.697754,98.910446 228.369308,98.748772 228.021240,98.293823 
z"/>
<path fill="#848584" opacity="1.000000" stroke="none" 
	d="
M223.283417,99.049446 
	C223.187439,98.783340 223.415268,98.477692 223.904160,98.042374 
	C223.979233,98.278442 223.793228,98.644173 223.283417,99.049446 
z"/>
<path fill="#848584" opacity="1.000000" stroke="none" 
	d="
M115.268188,99.047623 
	C115.165291,98.792763 115.358459,98.509453 115.784714,98.109863 
	C115.866608,98.335449 115.715431,98.677315 115.268188,99.047623 
z"/>
<path fill="#848584" opacity="1.000000" stroke="none" 
	d="
M108.268990,99.004402 
	C108.317520,98.830009 108.598648,98.779716 108.953087,98.903740 
	C108.851463,99.094872 108.676521,99.111687 108.268990,99.004402 
z"/>
<path fill="#848584" opacity="1.000000" stroke="none" 
	d="
M78.253685,99.038292 
	C78.065849,98.743790 78.239540,98.473686 78.710022,98.141388 
	C78.793701,98.353905 78.663162,98.681740 78.253685,99.038292 
z"/>
<path fill="#D2D2D2" opacity="1.000000" stroke="none" 
	d="
M27.863813,110.920135 
	C28.026802,111.144905 28.012218,111.338310 27.990831,111.824158 
	C27.984028,112.116585 27.699574,112.157959 27.557892,112.175354 
	C27.366367,111.969978 27.316528,111.747208 27.297674,111.183167 
	C27.328659,110.841896 27.686241,110.888771 27.863813,110.920135 
z"/>
<path fill="#848584" opacity="1.000000" stroke="none" 
	d="
M228.023651,62.267426 
	C228.262161,62.210968 228.422302,62.378796 228.537140,62.573368 
	C228.559235,62.610771 228.403519,62.753113 228.165436,62.923347 
	C227.977173,62.833443 227.953339,62.667236 228.023651,62.267426 
z"/>
<path fill="#848584" opacity="1.000000" stroke="none" 
	d="
M116.053635,62.754456 
	C115.878555,62.747471 115.738853,62.489380 115.752090,62.131004 
	C115.966354,62.188267 116.027679,62.345806 116.053635,62.754456 
z"/>
<path fill="#FDFDFD" opacity="1.000000" stroke="none" 
	d="
M164.483170,85.980156 
	C164.442307,81.833267 164.058548,77.969215 164.803101,74.336403 
	C165.741684,69.756981 169.333130,67.426872 173.923752,67.430298 
	C178.477570,67.433701 182.166534,69.646217 183.152420,74.229446 
	C183.932053,77.853897 184.176804,81.835800 183.534088,85.459427 
	C182.811310,89.534439 180.100281,92.573036 175.456985,93.047913 
	C170.122574,93.593468 166.507858,91.407234 164.483170,85.980156 
z"/>
<path fill="#FCFCFC" opacity="1.000000" stroke="none" 
	d="
M236.092545,80.990044 
	C236.092606,76.677177 236.092606,72.858963 236.092606,68.448059 
	C241.432892,67.948578 246.518646,67.404388 250.525772,71.652145 
	C253.495621,74.800354 254.005371,83.189552 251.784760,87.358879 
	C248.294403,93.912285 242.280640,91.956444 236.092484,92.025261 
	C236.092484,88.352814 236.092484,84.918755 236.092545,80.990044 
z"/>
<path fill="#D2D2D2" opacity="1.000000" stroke="none" 
	d="
M112.024780,109.979248 
	C111.578453,110.699249 111.107986,111.438965 110.637520,112.178688 
	C110.313759,111.930351 109.989998,111.682014 109.666237,111.433670 
	C110.250542,110.988297 110.834846,110.542915 111.729538,110.023926 
	C112.039925,109.950302 112.000656,109.998970 112.024780,109.979248 
z"/>
<path fill="#D2D2D2" opacity="1.000000" stroke="none" 
	d="
M25.361172,111.308029 
	C24.829580,111.656799 24.264727,111.727989 23.699871,111.799171 
	C23.733725,111.427147 23.767578,111.055130 23.801434,110.683105 
	C24.310257,110.798889 24.819082,110.914673 25.361172,111.308029 
z"/>
</svg>