<svg xmlns="http://www.w3.org/2000/svg" width="1920" height="1920" viewBox="0 0 1920 1920" version="1.1"><path d="M 885.500 364.621 C 872.210 367.015, 851.019 371.933, 842 374.715 C 815.661 382.841, 790.962 401.370, 776.304 424 C 774.344 427.025, 771.694 431.075, 770.415 433 C 758.472 450.971, 751.751 486.425, 754.884 514.926 C 756.205 526.951, 761.105 551.732, 763.893 560.500 C 771.541 584.546, 779.142 604.741, 786.383 620.250 C 788.886 625.612, 790.741 630, 790.505 630 C 790.123 630, 801.946 654.414, 808.665 667.500 C 818.049 685.776, 824.212 697.376, 826.292 700.680 C 827.615 702.781, 831.059 708.992, 833.945 714.481 C 836.831 719.971, 841.656 728.521, 844.667 733.481 C 847.678 738.442, 854.452 749.700, 859.720 758.500 C 879.212 791.058, 886.295 802.598, 889.182 806.500 C 890.809 808.700, 897.763 819.275, 904.636 830 C 919.795 853.659, 929.062 867.006, 931.316 868.427 C 932.511 869.181, 933.508 869.171, 934.750 868.390 C 936.124 867.527, 936.644 865.270, 937.171 857.895 C 937.540 852.728, 938.765 837.925, 939.894 825 C 941.022 812.075, 942.650 791.600, 943.513 779.500 C 945.222 755.502, 946.561 710.113, 945.528 711.141 C 945.174 711.494, 943.336 710.187, 941.442 708.238 C 937.662 704.346, 936.879 699.856, 939.495 697.084 C 946.248 689.927, 946.124 690.363, 947.012 670.745 C 948.182 644.868, 946.264 589.919, 942.971 555 C 938.287 505.328, 934.485 480.534, 926.332 446.500 C 917.917 411.374, 909.269 387.742, 897.695 368.250 C 895.980 365.363, 894.335 363.040, 894.039 363.090 C 893.742 363.139, 889.900 363.828, 885.500 364.621 M 1022.842 367.317 C 1014.140 381.408, 1012.431 385.447, 1002.453 415.500 C 994.855 438.382, 985.564 479.031, 983.013 500.549 C 982.364 506.022, 980.987 517.475, 979.951 526 C 977.587 545.468, 975.382 570.121, 973.869 594 C 972.636 613.451, 972.335 686.328, 973.472 689.911 C 973.836 691.060, 974.667 692.014, 975.317 692.031 C 977.210 692.082, 980.264 696.973, 981.034 701.187 C 981.622 704.399, 981.422 705.239, 979.872 706.069 C 978.842 706.620, 978 707.675, 978 708.413 C 978 709.152, 977.086 710.373, 975.969 711.128 C 974.059 712.418, 973.938 713.531, 973.935 729.837 C 973.934 739.372, 974.174 750.397, 974.469 754.337 C 974.765 758.277, 975.469 768.925, 976.033 778 C 976.598 787.075, 978.195 807.550, 979.583 823.500 C 980.970 839.450, 982.142 855.200, 982.186 858.500 C 982.294 866.496, 983.310 869, 986.449 869 C 988.487 869, 990.096 867.291, 995.162 859.750 C 998.579 854.663, 1001.874 849.997, 1002.484 849.382 C 1003.094 848.767, 1005.558 845.167, 1007.960 841.382 C 1010.362 837.597, 1015.610 829.325, 1019.623 823 C 1023.635 816.675, 1028.170 809.700, 1029.701 807.500 C 1033.181 802.498, 1046.995 780.069, 1061.110 756.500 C 1067.039 746.600, 1073.675 735.575, 1075.857 732 C 1088.610 711.102, 1124.326 642.726, 1128.997 630.269 C 1130.075 627.392, 1132.921 620.867, 1135.321 615.769 C 1139.812 606.228, 1141.281 602.452, 1149.825 578.500 C 1154.882 564.322, 1158.441 552.378, 1159.509 546 C 1159.831 544.075, 1161.081 537.325, 1162.287 531 C 1164.148 521.242, 1164.479 516.015, 1164.478 496.500 C 1164.476 475.656, 1164.254 472.609, 1162.109 464 C 1154.597 433.855, 1133.664 405.416, 1106.238 388.097 C 1088.353 376.804, 1070.207 371.122, 1027.962 363.588 C 1025.850 363.211, 1024.992 363.835, 1022.842 367.317 M 641.885 489.725 C 623.566 508.899, 603.923 537.003, 592.767 560 C 585.578 574.819, 583.474 579.942, 582.502 584.992 C 582.260 586.248, 581.394 589.576, 580.578 592.388 C 570.207 628.109, 578.259 668.708, 601.953 700.164 C 610.935 712.089, 626.816 727.359, 650.507 746.849 C 666.929 760.360, 702.571 784.690, 731.500 802.138 C 735.350 804.460, 741.425 808.252, 745 810.565 C 748.575 812.878, 755.775 817.129, 761 820.011 C 766.225 822.893, 772.750 826.695, 775.500 828.459 C 785.232 834.704, 835.334 861.820, 874.280 881.922 C 900.193 895.297, 902.247 895.030, 895.460 879.177 C 889.633 865.566, 859.200 805.021, 846.341 781.457 C 845.153 779.281, 840.917 771.425, 836.927 764 C 832.937 756.575, 828.460 748.700, 826.979 746.500 C 825.498 744.300, 821.471 737.325, 818.029 731 C 814.587 724.675, 810.314 717.250, 808.532 714.500 C 804.762 708.682, 790.818 685.204, 789.823 683 C 789.450 682.175, 787.584 679.250, 785.675 676.500 C 783.767 673.750, 779.455 667, 776.093 661.500 C 764.543 642.602, 733.943 596.145, 724 582.410 C 719.875 576.713, 713.350 567.464, 709.500 561.858 C 702.053 551.015, 691.083 535.831, 690.094 535 C 689.768 534.725, 681.535 523.925, 671.801 511 C 662.066 498.075, 653.053 486.221, 651.772 484.658 L 649.441 481.816 641.885 489.725 M 1259.364 496.129 C 1253.290 504.033, 1244.313 515.900, 1239.415 522.500 C 1234.517 529.100, 1230.240 534.725, 1229.910 535 C 1228.923 535.823, 1217.986 550.958, 1210.500 561.858 C 1206.650 567.464, 1200.125 576.713, 1196 582.410 C 1186.057 596.145, 1155.457 642.602, 1143.907 661.500 C 1140.545 667, 1136.233 673.750, 1134.325 676.500 C 1132.416 679.250, 1130.550 682.175, 1130.177 683 C 1129.138 685.301, 1115.157 708.862, 1111.485 714.500 C 1109.694 717.250, 1105.437 724.617, 1102.025 730.871 C 1098.612 737.125, 1094.358 744.550, 1092.571 747.371 C 1090.783 750.192, 1086.211 758.284, 1082.410 765.353 C 1078.610 772.423, 1072.674 783.448, 1069.219 789.853 C 1060.052 806.852, 1029.446 868.009, 1024.857 878.500 C 1020.631 888.161, 1020.422 892, 1024.124 892 C 1025.979 892, 1041.227 884.431, 1074 867.242 C 1092.163 857.715, 1139.279 831.822, 1144.500 828.497 C 1147.250 826.746, 1154.225 822.691, 1160 819.485 C 1165.775 816.280, 1172.975 811.993, 1176 809.957 C 1179.025 807.922, 1184.650 804.406, 1188.500 802.144 C 1209.498 789.808, 1252.877 760.579, 1264.580 750.881 C 1266.824 749.021, 1270.163 746.375, 1271.998 745 C 1273.834 743.625, 1276.048 741.808, 1276.918 740.963 C 1277.788 740.118, 1283.087 735.481, 1288.693 730.658 C 1315.609 707.505, 1331.537 684.822, 1338.308 660 C 1345.591 633.307, 1345.622 617.424, 1338.447 589.352 C 1330.697 559.032, 1306.786 519.324, 1278.999 490.629 L 1270.408 481.759 1259.364 496.129 M 1390.018 715.587 C 1385.352 718.092, 1381.077 720.504, 1380.518 720.948 C 1379.958 721.392, 1373.650 724.793, 1366.500 728.507 C 1359.350 732.221, 1352.825 735.818, 1352 736.500 C 1351.175 737.182, 1344.733 740.748, 1337.685 744.424 C 1330.638 748.100, 1322.538 752.584, 1319.685 754.390 C 1316.833 756.195, 1311.350 759.273, 1307.500 761.231 C 1303.650 763.189, 1297.800 766.392, 1294.500 768.350 C 1291.200 770.308, 1286.250 773.115, 1283.500 774.587 C 1280.750 776.060, 1267.700 783.400, 1254.500 790.899 C 1241.300 798.398, 1228.475 805.604, 1226 806.911 C 1223.525 808.219, 1220.150 810.270, 1218.500 811.470 C 1216.850 812.670, 1209.200 817.154, 1201.500 821.433 C 1193.800 825.713, 1187.275 829.529, 1187 829.914 C 1186.725 830.298, 1183.575 832.221, 1180 834.186 C 1169.267 840.088, 1148.964 851.946, 1141.500 856.673 C 1137.650 859.111, 1129.775 863.973, 1124 867.478 C 1096.139 884.385, 1076.797 896.463, 1064.866 904.401 C 1060.815 907.097, 1054.354 911.372, 1050.510 913.901 C 1043.433 918.556, 1041.853 920.913, 1044.040 923.548 C 1045.078 924.799, 1058.397 924.994, 1140.372 924.957 C 1246.318 924.909, 1269.265 924.287, 1281.500 921.127 C 1315.547 912.335, 1337.644 900.121, 1360.526 877.445 C 1369.486 868.566, 1376.423 860.180, 1381.161 852.500 C 1385.300 845.791, 1392.918 822.195, 1396.013 806.500 C 1402.123 775.514, 1403.973 765.018, 1405.476 752.813 L 1407.161 739.126 1404.663 727.813 C 1401.961 715.578, 1400.489 710.991, 1399.275 711.017 C 1398.849 711.026, 1394.683 713.083, 1390.018 715.587 M 519.480 713.033 C 518.442 714.712, 517.047 719.905, 514.963 729.852 C 513.271 737.926, 513.144 740.448, 514.036 748.317 C 515.706 763.058, 516.892 770.718, 519.637 784.500 C 521.061 791.650, 523.025 801.550, 524 806.500 C 526.638 819.886, 533.700 842.628, 537.535 850.087 C 540.266 855.400, 549.729 867.596, 556.425 874.433 C 577.022 895.465, 597.581 908.495, 624.200 917.388 C 636.972 921.656, 641.959 922.761, 654 923.993 C 664.264 925.044, 872.742 925.420, 875.418 924.393 C 876.288 924.059, 877 922.712, 877 921.400 C 877 919.497, 875.225 917.865, 868.250 913.353 C 863.438 910.241, 857.025 906.005, 854 903.940 C 850.975 901.876, 841.075 895.595, 832 889.984 C 822.925 884.373, 812.575 877.874, 809 875.542 C 805.425 873.210, 795.812 867.297, 787.639 862.401 C 779.465 857.506, 771.365 852.650, 769.639 851.611 C 767.912 850.572, 759.975 845.947, 752 841.333 C 744.025 836.720, 736.825 832.531, 736 832.024 C 726.708 826.320, 720.345 822.608, 714.500 819.483 C 710.650 817.425, 705.548 814.438, 703.163 812.845 C 700.777 811.253, 695.377 808.099, 691.163 805.838 C 684.843 802.446, 674.775 796.688, 667 792.020 C 661.597 788.775, 615.851 763.387, 610.753 760.804 C 607.314 759.061, 602.250 756.206, 599.500 754.458 C 596.750 752.710, 589.100 748.476, 582.500 745.047 C 575.900 741.619, 569.825 738.252, 569 737.565 C 568.175 736.878, 560.750 732.819, 552.500 728.545 C 544.250 724.271, 536.923 720.308, 536.219 719.739 C 534.578 718.413, 521.856 712, 520.866 712 C 520.455 712, 519.831 712.465, 519.480 713.033 M 758 948.097 C 699.425 950.254, 638.599 952.352, 622.831 952.759 C 607.063 953.167, 593.877 953.786, 593.529 954.135 C 592.595 955.072, 601.156 969.133, 609.277 980 C 629.715 1007.347, 654.578 1026.309, 681.500 1035.079 C 690.974 1038.165, 692.315 1038.340, 707 1038.406 C 721.615 1038.472, 722.957 1038.312, 730.500 1035.616 C 745.660 1030.196, 774.435 1015.467, 793.093 1003.578 C 797.167 1000.982, 807.221 994.609, 815.435 989.416 C 823.649 984.224, 831.074 979.373, 831.935 978.637 C 832.796 977.902, 840.700 972.444, 849.500 966.509 C 868.280 953.843, 873.006 950.253, 872.985 948.666 C 872.954 946.302, 871.251 944.920, 867.919 944.552 C 866.039 944.345, 816.575 945.940, 758 948.097 M 1048.938 945.218 C 1047.766 945.652, 1047 946.874, 1047 948.312 C 1047 950.173, 1049.006 952.101, 1056.250 957.202 C 1080.346 974.171, 1105.764 991.105, 1119.391 999.266 C 1124.951 1002.596, 1130.850 1006.308, 1132.500 1007.516 C 1137.907 1011.475, 1167.243 1026.797, 1179.500 1032.065 C 1194.163 1038.367, 1204.019 1040.373, 1216.500 1039.598 C 1247.658 1037.664, 1279.775 1018.553, 1305.173 986.833 C 1315.635 973.766, 1327.759 955.426, 1326.660 954.327 C 1326.423 954.090, 1311.215 953.460, 1292.865 952.927 C 1274.514 952.393, 1212.560 950.279, 1155.188 948.228 C 1097.817 946.178, 1050.004 944.823, 1048.938 945.218 M 289 1311 L 289 1424 311.990 1424 L 334.980 1424 335.240 1378.250 L 335.500 1332.500 386.500 1332.500 L 437.500 1332.500 437.760 1378.250 L 438.020 1424 461.010 1424 L 484 1424 484 1311 L 484 1198 461 1198 L 438 1198 438 1243.500 L 438 1289 386.500 1289 L 335 1289 335 1243.500 L 335 1198 312 1198 L 289 1198 289 1311 M 548.004 1269.731 C 548.008 1348.629, 548.203 1351.818, 554.091 1369.473 C 563.987 1399.143, 585.932 1417.835, 619.500 1425.186 C 627.664 1426.973, 662.566 1426.957, 670 1425.163 C 704.213 1416.902, 724.305 1399.949, 735.371 1370 C 742.167 1351.608, 743 1339.909, 743 1262.894 L 743 1198 719.500 1198 L 696 1198 696 1268.053 C 696 1328.640, 695.784 1339.078, 694.398 1345.303 C 688.577 1371.456, 670.724 1384.144, 641.735 1382.729 C 617.345 1381.539, 603.926 1371.559, 596.384 1349 C 594.688 1343.926, 594.505 1337.887, 594.023 1271 L 593.500 1198.500 570.750 1198.231 L 548 1197.962 548.004 1269.731 M 858.294 1212.287 C 851.845 1227.058, 836.371 1262.238, 792.101 1362.775 C 777.745 1395.376, 766 1422.488, 766 1423.025 C 766 1423.631, 774.856 1424, 789.391 1424 L 812.783 1424 814.450 1419.833 C 815.367 1417.541, 819.964 1406.962, 824.666 1396.324 L 833.215 1376.982 884.743 1377.241 L 936.270 1377.500 946.320 1400.750 L 956.369 1424 980.184 1424 C 993.283 1424, 1004 1423.619, 1004 1423.154 C 1004 1422.689, 1000.576 1414.477, 996.391 1404.904 C 992.206 1395.332, 985.733 1380.525, 982.006 1372 C 978.280 1363.475, 967.701 1339.400, 958.497 1318.500 C 949.293 1297.600, 940.520 1277.575, 939.001 1274 C 937.481 1270.425, 931.661 1257.150, 926.066 1244.500 C 920.471 1231.850, 913.587 1216.213, 910.769 1209.750 L 905.645 1198 885.072 1198.037 L 864.500 1198.073 858.294 1212.287 M 988 1199.041 C 988 1199.614, 990.891 1208.501, 994.424 1218.791 C 1000.636 1236.881, 1003.572 1245.321, 1026.494 1311 C 1032.348 1327.775, 1040.024 1349.825, 1043.552 1360 C 1047.080 1370.175, 1053.503 1388.625, 1057.826 1401 L 1065.686 1423.500 1084.998 1423.500 L 1104.309 1423.500 1106.061 1418.500 C 1110.497 1405.845, 1141.845 1315.478, 1147.689 1298.500 C 1151.286 1288.050, 1154.568 1278.876, 1154.981 1278.113 C 1155.454 1277.241, 1157.416 1281.696, 1160.265 1290.113 C 1162.757 1297.476, 1172.312 1325.100, 1181.498 1351.500 C 1190.685 1377.900, 1200.060 1405.022, 1202.333 1411.770 L 1206.465 1424.041 1225.982 1423.770 L 1245.500 1423.500 1252.202 1404 C 1259.074 1384.006, 1270.642 1350.655, 1283.591 1313.500 C 1287.617 1301.950, 1294.503 1282.150, 1298.893 1269.500 C 1303.284 1256.850, 1310.248 1236.802, 1314.369 1224.948 C 1318.491 1213.094, 1322.169 1202.173, 1322.544 1200.680 L 1323.226 1197.963 1299.446 1198.232 L 1275.666 1198.500 1269.902 1216 C 1266.733 1225.625, 1255.758 1259.600, 1245.515 1291.500 C 1235.272 1323.400, 1226.639 1350.175, 1226.329 1351 C 1225.703 1352.670, 1226.487 1354.961, 1196.485 1263.750 L 1174.857 1198 1155.981 1198 L 1137.105 1198 1116.471 1260.750 C 1089.176 1343.753, 1086.671 1351.084, 1085.903 1350.228 C 1085.143 1349.381, 1077.340 1325.638, 1062.987 1280.500 C 1057.391 1262.900, 1050.189 1240.400, 1046.983 1230.500 C 1043.777 1220.600, 1040.131 1209.237, 1038.880 1205.250 L 1036.606 1198 1012.303 1198 C 996.126 1198, 988 1198.348, 988 1199.041 M 1360.246 1310.750 L 1360.500 1423.500 1445.750 1423.756 L 1531 1424.011 1531 1403.006 L 1531 1382 1468.500 1382 L 1406 1382 1406 1354.500 L 1406 1327 1447.500 1327 L 1489 1327 1489 1306 L 1489 1285 1447.500 1285 L 1406 1285 1406 1262 L 1406 1239 1466.500 1239 L 1527 1239 1527 1218.500 L 1527 1198 1443.496 1198 L 1359.991 1198 1360.246 1310.750 M 1586 1311 L 1586 1424 1608.500 1424 L 1631 1424 1631 1311 L 1631 1198 1608.500 1198 L 1586 1198 1586 1311 M 867.622 1294.892 C 858.480 1316.331, 851 1334.351, 851 1334.936 C 851 1335.667, 861.492 1336, 884.500 1336 C 908.287 1336, 918 1335.680, 918 1334.895 C 918 1334.287, 914.890 1326.525, 911.088 1317.645 C 893.611 1276.822, 884.831 1256.497, 884.550 1256.217 C 884.382 1256.049, 876.765 1273.453, 867.622 1294.892" stroke="none" fill="#d50f19" fill-rule="evenodd"/><path d="M 0 960.001 L 0 1920.001 960.250 1919.751 L 1920.500 1919.500 1920.751 959.750 L 1921.001 -0 960.501 -0 L 0 0 0 960.001 M 0.498 960.500 C 0.498 1488.500, 0.611 1704.350, 0.750 1440.167 C 0.889 1175.985, 0.889 743.985, 0.750 480.167 C 0.611 216.350, 0.498 432.500, 0.498 960.500 M 885.500 364.621 C 872.210 367.015, 851.019 371.933, 842 374.715 C 815.661 382.841, 790.962 401.370, 776.304 424 C 774.344 427.025, 771.694 431.075, 770.415 433 C 758.472 450.971, 751.751 486.425, 754.884 514.926 C 756.205 526.951, 761.105 551.732, 763.893 560.500 C 771.541 584.546, 779.142 604.741, 786.383 620.250 C 788.886 625.612, 790.741 630, 790.505 630 C 790.123 630, 801.946 654.414, 808.665 667.500 C 818.049 685.776, 824.212 697.376, 826.292 700.680 C 827.615 702.781, 831.059 708.992, 833.945 714.481 C 836.831 719.971, 841.656 728.521, 844.667 733.481 C 847.678 738.442, 854.452 749.700, 859.720 758.500 C 879.212 791.058, 886.295 802.598, 889.182 806.500 C 890.809 808.700, 897.763 819.275, 904.636 830 C 919.795 853.659, 929.062 867.006, 931.316 868.427 C 932.511 869.181, 933.508 869.171, 934.750 868.390 C 936.124 867.527, 936.644 865.270, 937.171 857.895 C 937.540 852.728, 938.765 837.925, 939.894 825 C 941.022 812.075, 942.650 791.600, 943.513 779.500 C 945.222 755.502, 946.561 710.113, 945.528 711.141 C 945.174 711.494, 943.336 710.187, 941.442 708.238 C 937.662 704.346, 936.879 699.856, 939.495 697.084 C 946.248 689.927, 946.124 690.363, 947.012 670.745 C 948.182 644.868, 946.264 589.919, 942.971 555 C 938.287 505.328, 934.485 480.534, 926.332 446.500 C 917.917 411.374, 909.269 387.742, 897.695 368.250 C 895.980 365.363, 894.335 363.040, 894.039 363.090 C 893.742 363.139, 889.900 363.828, 885.500 364.621 M 1022.842 367.317 C 1014.140 381.408, 1012.431 385.447, 1002.453 415.500 C 994.855 438.382, 985.564 479.031, 983.013 500.549 C 982.364 506.022, 980.987 517.475, 979.951 526 C 977.587 545.468, 975.382 570.121, 973.869 594 C 972.636 613.451, 972.335 686.328, 973.472 689.911 C 973.836 691.060, 974.667 692.014, 975.317 692.031 C 977.210 692.082, 980.264 696.973, 981.034 701.187 C 981.622 704.399, 981.422 705.239, 979.872 706.069 C 978.842 706.620, 978 707.675, 978 708.413 C 978 709.152, 977.086 710.373, 975.969 711.128 C 974.059 712.418, 973.938 713.531, 973.935 729.837 C 973.934 739.372, 974.174 750.397, 974.469 754.337 C 974.765 758.277, 975.469 768.925, 976.033 778 C 976.598 787.075, 978.195 807.550, 979.583 823.500 C 980.970 839.450, 982.142 855.200, 982.186 858.500 C 982.294 866.496, 983.310 869, 986.449 869 C 988.487 869, 990.096 867.291, 995.162 859.750 C 998.579 854.663, 1001.874 849.997, 1002.484 849.382 C 1003.094 848.767, 1005.558 845.167, 1007.960 841.382 C 1010.362 837.597, 1015.610 829.325, 1019.623 823 C 1023.635 816.675, 1028.170 809.700, 1029.701 807.500 C 1033.181 802.498, 1046.995 780.069, 1061.110 756.500 C 1067.039 746.600, 1073.675 735.575, 1075.857 732 C 1088.610 711.102, 1124.326 642.726, 1128.997 630.269 C 1130.075 627.392, 1132.921 620.867, 1135.321 615.769 C 1139.812 606.228, 1141.281 602.452, 1149.825 578.500 C 1154.882 564.322, 1158.441 552.378, 1159.509 546 C 1159.831 544.075, 1161.081 537.325, 1162.287 531 C 1164.148 521.242, 1164.479 516.015, 1164.478 496.500 C 1164.476 475.656, 1164.254 472.609, 1162.109 464 C 1154.597 433.855, 1133.664 405.416, 1106.238 388.097 C 1088.353 376.804, 1070.207 371.122, 1027.962 363.588 C 1025.850 363.211, 1024.992 363.835, 1022.842 367.317 M 641.885 489.725 C 623.566 508.899, 603.923 537.003, 592.767 560 C 585.578 574.819, 583.474 579.942, 582.502 584.992 C 582.260 586.248, 581.394 589.576, 580.578 592.388 C 570.207 628.109, 578.259 668.708, 601.953 700.164 C 610.935 712.089, 626.816 727.359, 650.507 746.849 C 666.929 760.360, 702.571 784.690, 731.500 802.138 C 735.350 804.460, 741.425 808.252, 745 810.565 C 748.575 812.878, 755.775 817.129, 761 820.011 C 766.225 822.893, 772.750 826.695, 775.500 828.459 C 785.232 834.704, 835.334 861.820, 874.280 881.922 C 900.193 895.297, 902.247 895.030, 895.460 879.177 C 889.633 865.566, 859.200 805.021, 846.341 781.457 C 845.153 779.281, 840.917 771.425, 836.927 764 C 832.937 756.575, 828.460 748.700, 826.979 746.500 C 825.498 744.300, 821.471 737.325, 818.029 731 C 814.587 724.675, 810.314 717.250, 808.532 714.500 C 804.762 708.682, 790.818 685.204, 789.823 683 C 789.450 682.175, 787.584 679.250, 785.675 676.500 C 783.767 673.750, 779.455 667, 776.093 661.500 C 764.543 642.602, 733.943 596.145, 724 582.410 C 719.875 576.713, 713.350 567.464, 709.500 561.858 C 702.053 551.015, 691.083 535.831, 690.094 535 C 689.768 534.725, 681.535 523.925, 671.801 511 C 662.066 498.075, 653.053 486.221, 651.772 484.658 L 649.441 481.816 641.885 489.725 M 1259.364 496.129 C 1253.290 504.033, 1244.313 515.900, 1239.415 522.500 C 1234.517 529.100, 1230.240 534.725, 1229.910 535 C 1228.923 535.823, 1217.986 550.958, 1210.500 561.858 C 1206.650 567.464, 1200.125 576.713, 1196 582.410 C 1186.057 596.145, 1155.457 642.602, 1143.907 661.500 C 1140.545 667, 1136.233 673.750, 1134.325 676.500 C 1132.416 679.250, 1130.550 682.175, 1130.177 683 C 1129.138 685.301, 1115.157 708.862, 1111.485 714.500 C 1109.694 717.250, 1105.437 724.617, 1102.025 730.871 C 1098.612 737.125, 1094.358 744.550, 1092.571 747.371 C 1090.783 750.192, 1086.211 758.284, 1082.410 765.353 C 1078.610 772.423, 1072.674 783.448, 1069.219 789.853 C 1060.052 806.852, 1029.446 868.009, 1024.857 878.500 C 1020.631 888.161, 1020.422 892, 1024.124 892 C 1025.979 892, 1041.227 884.431, 1074 867.242 C 1092.163 857.715, 1139.279 831.822, 1144.500 828.497 C 1147.250 826.746, 1154.225 822.691, 1160 819.485 C 1165.775 816.280, 1172.975 811.993, 1176 809.957 C 1179.025 807.922, 1184.650 804.406, 1188.500 802.144 C 1209.498 789.808, 1252.877 760.579, 1264.580 750.881 C 1266.824 749.021, 1270.163 746.375, 1271.998 745 C 1273.834 743.625, 1276.048 741.808, 1276.918 740.963 C 1277.788 740.118, 1283.087 735.481, 1288.693 730.658 C 1315.609 707.505, 1331.537 684.822, 1338.308 660 C 1345.591 633.307, 1345.622 617.424, 1338.447 589.352 C 1330.697 559.032, 1306.786 519.324, 1278.999 490.629 L 1270.408 481.759 1259.364 496.129 M 1390.018 715.587 C 1385.352 718.092, 1381.077 720.504, 1380.518 720.948 C 1379.958 721.392, 1373.650 724.793, 1366.500 728.507 C 1359.350 732.221, 1352.825 735.818, 1352 736.500 C 1351.175 737.182, 1344.733 740.748, 1337.685 744.424 C 1330.638 748.100, 1322.538 752.584, 1319.685 754.390 C 1316.833 756.195, 1311.350 759.273, 1307.500 761.231 C 1303.650 763.189, 1297.800 766.392, 1294.500 768.350 C 1291.200 770.308, 1286.250 773.115, 1283.500 774.587 C 1280.750 776.060, 1267.700 783.400, 1254.500 790.899 C 1241.300 798.398, 1228.475 805.604, 1226 806.911 C 1223.525 808.219, 1220.150 810.270, 1218.500 811.470 C 1216.850 812.670, 1209.200 817.154, 1201.500 821.433 C 1193.800 825.713, 1187.275 829.529, 1187 829.914 C 1186.725 830.298, 1183.575 832.221, 1180 834.186 C 1169.267 840.088, 1148.964 851.946, 1141.500 856.673 C 1137.650 859.111, 1129.775 863.973, 1124 867.478 C 1096.139 884.385, 1076.797 896.463, 1064.866 904.401 C 1060.815 907.097, 1054.354 911.372, 1050.510 913.901 C 1043.433 918.556, 1041.853 920.913, 1044.040 923.548 C 1045.078 924.799, 1058.397 924.994, 1140.372 924.957 C 1246.318 924.909, 1269.265 924.287, 1281.500 921.127 C 1315.547 912.335, 1337.644 900.121, 1360.526 877.445 C 1369.486 868.566, 1376.423 860.180, 1381.161 852.500 C 1385.300 845.791, 1392.918 822.195, 1396.013 806.500 C 1402.123 775.514, 1403.973 765.018, 1405.476 752.813 L 1407.161 739.126 1404.663 727.813 C 1401.961 715.578, 1400.489 710.991, 1399.275 711.017 C 1398.849 711.026, 1394.683 713.083, 1390.018 715.587 M 519.480 713.033 C 518.442 714.712, 517.047 719.905, 514.963 729.852 C 513.271 737.926, 513.144 740.448, 514.036 748.317 C 515.706 763.058, 516.892 770.718, 519.637 784.500 C 521.061 791.650, 523.025 801.550, 524 806.500 C 526.638 819.886, 533.700 842.628, 537.535 850.087 C 540.266 855.400, 549.729 867.596, 556.425 874.433 C 577.022 895.465, 597.581 908.495, 624.200 917.388 C 636.972 921.656, 641.959 922.761, 654 923.993 C 664.264 925.044, 872.742 925.420, 875.418 924.393 C 876.288 924.059, 877 922.712, 877 921.400 C 877 919.497, 875.225 917.865, 868.250 913.353 C 863.438 910.241, 857.025 906.005, 854 903.940 C 850.975 901.876, 841.075 895.595, 832 889.984 C 822.925 884.373, 812.575 877.874, 809 875.542 C 805.425 873.210, 795.812 867.297, 787.639 862.401 C 779.465 857.506, 771.365 852.650, 769.639 851.611 C 767.912 850.572, 759.975 845.947, 752 841.333 C 744.025 836.720, 736.825 832.531, 736 832.024 C 726.708 826.320, 720.345 822.608, 714.500 819.483 C 710.650 817.425, 705.548 814.438, 703.163 812.845 C 700.777 811.253, 695.377 808.099, 691.163 805.838 C 684.843 802.446, 674.775 796.688, 667 792.020 C 661.597 788.775, 615.851 763.387, 610.753 760.804 C 607.314 759.061, 602.250 756.206, 599.500 754.458 C 596.750 752.710, 589.100 748.476, 582.500 745.047 C 575.900 741.619, 569.825 738.252, 569 737.565 C 568.175 736.878, 560.750 732.819, 552.500 728.545 C 544.250 724.271, 536.923 720.308, 536.219 719.739 C 534.578 718.413, 521.856 712, 520.866 712 C 520.455 712, 519.831 712.465, 519.480 713.033 M 758 948.097 C 699.425 950.254, 638.599 952.352, 622.831 952.759 C 607.063 953.167, 593.877 953.786, 593.529 954.135 C 592.595 955.072, 601.156 969.133, 609.277 980 C 629.715 1007.347, 654.578 1026.309, 681.500 1035.079 C 690.974 1038.165, 692.315 1038.340, 707 1038.406 C 721.615 1038.472, 722.957 1038.312, 730.500 1035.616 C 745.660 1030.196, 774.435 1015.467, 793.093 1003.578 C 797.167 1000.982, 807.221 994.609, 815.435 989.416 C 823.649 984.224, 831.074 979.373, 831.935 978.637 C 832.796 977.902, 840.700 972.444, 849.500 966.509 C 868.280 953.843, 873.006 950.253, 872.985 948.666 C 872.954 946.302, 871.251 944.920, 867.919 944.552 C 866.039 944.345, 816.575 945.940, 758 948.097 M 1048.938 945.218 C 1047.766 945.652, 1047 946.874, 1047 948.312 C 1047 950.173, 1049.006 952.101, 1056.250 957.202 C 1080.346 974.171, 1105.764 991.105, 1119.391 999.266 C 1124.951 1002.596, 1130.850 1006.308, 1132.500 1007.516 C 1137.907 1011.475, 1167.243 1026.797, 1179.500 1032.065 C 1194.163 1038.367, 1204.019 1040.373, 1216.500 1039.598 C 1247.658 1037.664, 1279.775 1018.553, 1305.173 986.833 C 1315.635 973.766, 1327.759 955.426, 1326.660 954.327 C 1326.423 954.090, 1311.215 953.460, 1292.865 952.927 C 1274.514 952.393, 1212.560 950.279, 1155.188 948.228 C 1097.817 946.178, 1050.004 944.823, 1048.938 945.218 M 289 1311 L 289 1424 311.990 1424 L 334.980 1424 335.240 1378.250 L 335.500 1332.500 386.500 1332.500 L 437.500 1332.500 437.760 1378.250 L 438.020 1424 461.010 1424 L 484 1424 484 1311 L 484 1198 461 1198 L 438 1198 438 1243.500 L 438 1289 386.500 1289 L 335 1289 335 1243.500 L 335 1198 312 1198 L 289 1198 289 1311 M 548.004 1269.731 C 548.008 1348.629, 548.203 1351.818, 554.091 1369.473 C 563.987 1399.143, 585.932 1417.835, 619.500 1425.186 C 627.664 1426.973, 662.566 1426.957, 670 1425.163 C 704.213 1416.902, 724.305 1399.949, 735.371 1370 C 742.167 1351.608, 743 1339.909, 743 1262.894 L 743 1198 719.500 1198 L 696 1198 696 1268.053 C 696 1328.640, 695.784 1339.078, 694.398 1345.303 C 688.577 1371.456, 670.724 1384.144, 641.735 1382.729 C 617.345 1381.539, 603.926 1371.559, 596.384 1349 C 594.688 1343.926, 594.505 1337.887, 594.023 1271 L 593.500 1198.500 570.750 1198.231 L 548 1197.962 548.004 1269.731 M 858.294 1212.287 C 851.845 1227.058, 836.371 1262.238, 792.101 1362.775 C 777.745 1395.376, 766 1422.488, 766 1423.025 C 766 1423.631, 774.856 1424, 789.391 1424 L 812.783 1424 814.450 1419.833 C 815.367 1417.541, 819.964 1406.962, 824.666 1396.324 L 833.215 1376.982 884.743 1377.241 L 936.270 1377.500 946.320 1400.750 L 956.369 1424 980.184 1424 C 993.283 1424, 1004 1423.619, 1004 1423.154 C 1004 1422.689, 1000.576 1414.477, 996.391 1404.904 C 992.206 1395.332, 985.733 1380.525, 982.006 1372 C 978.280 1363.475, 967.701 1339.400, 958.497 1318.500 C 949.293 1297.600, 940.520 1277.575, 939.001 1274 C 937.481 1270.425, 931.661 1257.150, 926.066 1244.500 C 920.471 1231.850, 913.587 1216.213, 910.769 1209.750 L 905.645 1198 885.072 1198.037 L 864.500 1198.073 858.294 1212.287 M 988 1199.041 C 988 1199.614, 990.891 1208.501, 994.424 1218.791 C 1000.636 1236.881, 1003.572 1245.321, 1026.494 1311 C 1032.348 1327.775, 1040.024 1349.825, 1043.552 1360 C 1047.080 1370.175, 1053.503 1388.625, 1057.826 1401 L 1065.686 1423.500 1084.998 1423.500 L 1104.309 1423.500 1106.061 1418.500 C 1110.497 1405.845, 1141.845 1315.478, 1147.689 1298.500 C 1151.286 1288.050, 1154.568 1278.876, 1154.981 1278.113 C 1155.454 1277.241, 1157.416 1281.696, 1160.265 1290.113 C 1162.757 1297.476, 1172.312 1325.100, 1181.498 1351.500 C 1190.685 1377.900, 1200.060 1405.022, 1202.333 1411.770 L 1206.465 1424.041 1225.982 1423.770 L 1245.500 1423.500 1252.202 1404 C 1259.074 1384.006, 1270.642 1350.655, 1283.591 1313.500 C 1287.617 1301.950, 1294.503 1282.150, 1298.893 1269.500 C 1303.284 1256.850, 1310.248 1236.802, 1314.369 1224.948 C 1318.491 1213.094, 1322.169 1202.173, 1322.544 1200.680 L 1323.226 1197.963 1299.446 1198.232 L 1275.666 1198.500 1269.902 1216 C 1266.733 1225.625, 1255.758 1259.600, 1245.515 1291.500 C 1235.272 1323.400, 1226.639 1350.175, 1226.329 1351 C 1225.703 1352.670, 1226.487 1354.961, 1196.485 1263.750 L 1174.857 1198 1155.981 1198 L 1137.105 1198 1116.471 1260.750 C 1089.176 1343.753, 1086.671 1351.084, 1085.903 1350.228 C 1085.143 1349.381, 1077.340 1325.638, 1062.987 1280.500 C 1057.391 1262.900, 1050.189 1240.400, 1046.983 1230.500 C 1043.777 1220.600, 1040.131 1209.237, 1038.880 1205.250 L 1036.606 1198 1012.303 1198 C 996.126 1198, 988 1198.348, 988 1199.041 M 1360.246 1310.750 L 1360.500 1423.500 1445.750 1423.756 L 1531 1424.011 1531 1403.006 L 1531 1382 1468.500 1382 L 1406 1382 1406 1354.500 L 1406 1327 1447.500 1327 L 1489 1327 1489 1306 L 1489 1285 1447.500 1285 L 1406 1285 1406 1262 L 1406 1239 1466.500 1239 L 1527 1239 1527 1218.500 L 1527 1198 1443.496 1198 L 1359.991 1198 1360.246 1310.750 M 1586 1311 L 1586 1424 1608.500 1424 L 1631 1424 1631 1311 L 1631 1198 1608.500 1198 L 1586 1198 1586 1311 M 867.622 1294.892 C 858.480 1316.331, 851 1334.351, 851 1334.936 C 851 1335.667, 861.492 1336, 884.500 1336 C 908.287 1336, 918 1335.680, 918 1334.895 C 918 1334.287, 914.890 1326.525, 911.088 1317.645 C 893.611 1276.822, 884.831 1256.497, 884.550 1256.217 C 884.382 1256.049, 876.765 1273.453, 867.622 1294.892" stroke="none" fill="#fbfbfb" fill-rule="evenodd"/></svg>