<svg version="1.1" id="Layer_1" xmlns="http://www.w3.org/2000/svg" xmlns:xlink="http://www.w3.org/1999/xlink" x="0px" y="0px"
	 width="100%" viewBox="0 0 360 202" enable-background="new 0 0 360 202" xml:space="preserve">
<path fill="#FFFFFF" opacity="1.000000" stroke="none" 
	d="
M238.000000,203.000000 
	C158.666672,203.000000 79.833351,203.000000 1.000021,203.000000 
	C1.000014,135.666687 1.000014,68.333366 1.000007,1.000039 
	C120.999969,1.000026 240.999939,1.000026 360.999939,1.000013 
	C360.999939,68.333290 360.999939,135.666580 360.999969,202.999939 
	C320.166656,203.000000 279.333344,203.000000 238.000000,203.000000 
M275.283722,117.612221 
	C275.283722,117.612221 275.589447,117.822235 276.061707,118.431625 
	C280.492462,118.573692 284.923279,118.778770 289.353821,118.772980 
	C289.870575,118.772308 290.385803,117.606178 291.002686,116.050323 
	C291.002686,101.516632 291.002686,86.982948 291.002686,72.254074 
	C287.674500,72.254074 284.892853,72.254074 281.326935,72.554512 
	C281.314575,81.385483 281.302185,90.216446 280.540039,99.182526 
	C275.710907,90.783066 270.881775,82.383614 265.825439,73.192657 
	C260.743011,72.888329 255.661102,72.571594 250.574997,72.352852 
	C250.450836,72.347519 250.279831,73.431435 249.993729,74.934837 
	C250.038956,88.953934 250.084183,102.973030 250.017410,117.824905 
	C253.004211,117.848022 255.991013,117.871147 259.573486,117.340858 
	C259.573486,108.702934 259.573486,100.065018 259.573486,91.427094 
	C259.895386,91.405518 260.217285,91.383942 260.539185,91.362358 
	C265.301788,99.599342 270.064423,107.836327 274.836273,116.499863 
	C274.855225,116.800064 274.976898,117.050301 275.283722,117.612221 
M96.728783,72.821243 
	C96.728783,72.821243 96.691116,72.808250 96.263283,73.540436 
	C96.244797,84.951797 96.174751,96.363457 96.238258,107.774361 
	C96.258125,111.343597 96.638107,114.910828 97.430733,118.810616 
	C97.647438,118.763481 97.864151,118.716347 99.004211,118.744537 
	C109.308220,118.720062 119.612236,118.695587 130.443192,118.849655 
	C130.638290,118.575226 130.833389,118.300797 131.027527,117.914253 
	C131.027527,117.914253 130.918991,117.886124 131.312714,117.243431 
	C131.312714,114.947388 131.312714,112.651344 131.312714,109.715157 
	C124.100105,109.715157 117.234138,109.715157 110.491821,109.715157 
	C110.491821,105.820114 110.491821,102.575424 110.491821,98.940170 
	C116.400017,98.940170 121.991142,98.940170 127.719597,98.940170 
	C127.719597,96.149094 127.719597,93.767624 127.719597,90.826889 
	C121.727768,90.826889 116.012230,90.826889 110.409958,90.826889 
	C110.409958,87.320107 110.409958,84.382530 110.409958,80.848183 
	C117.348572,80.848183 124.064880,80.848183 131.484802,80.848183 
	C130.901962,77.554222 130.439804,74.942268 129.059784,72.147232 
	C118.700119,72.197670 108.340446,72.248100 97.473282,72.160889 
	C97.236977,72.375992 97.000671,72.591095 96.728783,72.821243 
M240.945557,72.194588 
	C240.622757,72.084763 240.315918,72.118927 239.096558,72.142311 
	C228.739731,72.206749 218.382919,72.271194 207.268295,72.650414 
	C207.193085,87.275650 207.104996,101.900871 207.084976,116.526184 
	C207.084091,117.179825 207.701492,117.834328 208.938049,118.715897 
	C219.636200,118.671997 230.334366,118.628090 241.464325,118.754745 
	C241.837158,118.628128 241.956375,118.379745 242.059326,117.523621 
	C242.018219,117.348091 241.977112,117.172554 242.103470,116.094177 
	C242.103470,114.156181 242.103470,112.218178 242.103470,109.855843 
	C234.918350,109.855843 228.175476,109.855843 221.255615,109.855843 
	C221.255615,106.055023 221.255615,102.691704 221.255615,98.822922 
	C227.298309,98.822922 233.026947,98.822922 238.755280,98.822922 
	C238.755280,96.045967 238.755280,93.786407 238.755280,91.036118 
	C232.801788,91.036118 227.069611,91.036118 221.185165,91.036118 
	C221.185165,87.476692 221.185165,84.416893 221.185165,80.843002 
	C228.152740,80.843002 234.881149,80.843002 242.073517,80.843002 
	C241.849472,77.707375 241.664169,75.113884 241.391678,72.507713 
	C241.391678,72.507713 241.303635,72.504166 240.945557,72.194588 
M85.986275,116.051979 
	C85.953667,102.040306 85.921051,88.028641 85.964645,73.155785 
	C81.141869,72.657394 76.319092,72.159012 71.567116,71.667938 
	C71.567116,88.114555 71.567116,103.313995 71.567116,118.880623 
	C75.893837,118.880623 79.862610,118.973785 83.819115,118.795120 
	C84.535027,118.762794 85.200592,117.615295 85.986275,116.051979 
M196.038803,73.138916 
	C190.781754,72.929024 185.525070,72.705704 180.266129,72.567963 
	C180.091339,72.563385 179.893814,73.425758 179.166656,74.312378 
	C175.545929,82.669716 171.925186,91.027054 167.899582,100.318886 
	C164.048218,91.169273 160.707153,83.087296 157.206146,75.075195 
	C156.698059,73.912422 155.468704,72.289085 154.497025,72.234550 
	C149.414825,71.949287 144.308090,72.101334 139.228333,72.101334 
	C139.228333,87.958855 139.228333,103.179535 139.228333,118.350143 
	C142.593124,118.350143 145.616837,118.350143 148.969635,118.350143 
	C148.969635,108.863792 148.969635,99.821335 148.969635,90.778870 
	C152.557861,97.765930 155.265945,104.980331 158.445251,111.980713 
	C162.368896,120.620079 160.192673,119.211212 169.763931,118.822823 
	C173.899323,109.506126 178.073395,100.102272 182.247467,90.698425 
	C182.602280,90.780312 182.957108,90.862198 183.311920,90.944084 
	C183.311920,100.138565 183.311920,109.333046 183.311920,118.541428 
	C187.766266,118.541428 191.697723,118.541428 195.966583,118.541428 
	C195.966583,103.527603 195.966583,88.765518 196.038803,73.138916 
M45.932049,110.783302 
	C40.693897,110.260063 35.455746,109.736816 29.936165,109.185455 
	C29.936165,111.944473 29.936165,114.823318 29.936165,117.931770 
	C39.685581,119.846748 49.217056,121.578041 58.317635,116.471298 
	C67.481354,111.329117 67.917503,99.693779 59.087170,93.997032 
	C55.064392,91.401794 50.457653,89.727180 46.307941,87.305695 
	C44.637936,86.331200 43.483105,84.473862 42.093807,83.018318 
	C44.083805,81.840508 46.070988,79.688087 48.064373,79.682320 
	C52.588001,79.669258 57.114681,80.712585 61.638039,81.326157 
	C61.638039,78.622925 61.638039,75.869560 61.638039,72.976830 
	C53.021759,71.227180 44.712231,69.745728 36.487217,73.660614 
	C31.742369,75.919029 28.762476,79.515274 28.556059,84.800781 
	C28.352499,90.013100 30.742426,94.225716 35.269985,96.765388 
	C39.163376,98.949326 43.473171,100.384720 47.403118,102.512581 
	C49.124599,103.444679 50.358829,105.276665 51.814316,106.700020 
	C50.126282,108.035873 48.438248,109.371735 45.932049,110.783302 
M327.810486,116.409279 
	C337.117554,110.271935 337.045258,98.851318 327.538910,93.273232 
	C323.821960,91.092232 319.732697,89.546844 316.009247,87.375420 
	C314.221191,86.332657 312.889374,84.507523 311.350952,83.036713 
	C313.364380,81.872803 315.370056,79.755257 317.392792,79.738823 
	C321.932831,79.701950 326.481354,80.708649 331.090454,81.298683 
	C331.090454,78.703033 331.090454,75.952217 331.090454,73.042770 
	C322.164917,71.197807 313.456635,69.504044 305.096436,74.133583 
	C296.048645,79.143890 295.677948,91.168640 304.479706,96.584938 
	C308.128510,98.830307 312.389160,100.067207 316.109344,102.216614 
	C318.030273,103.326492 319.377258,105.429863 320.983551,107.084351 
	C318.900787,108.334473 316.825287,110.615410 314.733826,110.630119 
	C309.648529,110.665878 304.555847,109.649162 299.278137,109.034500 
	C299.278137,111.670677 299.278137,114.606949 299.278137,117.868118 
	C308.773346,119.848396 318.049561,121.346649 327.810486,116.409279 
z"/>
<path fill="#059B9D" opacity="1.000000" stroke="none" 
	d="
M195.966583,74.003441 
	C195.966583,88.765518 195.966583,103.527603 195.966583,118.541428 
	C191.697723,118.541428 187.766266,118.541428 183.311920,118.541428 
	C183.311920,109.333046 183.311920,100.138565 183.311920,90.944084 
	C182.957108,90.862198 182.602280,90.780312 182.247467,90.698425 
	C178.073395,100.102272 173.899323,109.506126 169.763931,118.822823 
	C160.192673,119.211212 162.368896,120.620079 158.445251,111.980713 
	C155.265945,104.980331 152.557861,97.765930 148.969635,90.778870 
	C148.969635,99.821335 148.969635,108.863792 148.969635,118.350143 
	C145.616837,118.350143 142.593124,118.350143 139.228333,118.350143 
	C139.228333,103.179535 139.228333,87.958855 139.228333,72.101334 
	C144.308090,72.101334 149.414825,71.949287 154.497025,72.234550 
	C155.468704,72.289085 156.698059,73.912422 157.206146,75.075195 
	C160.707153,83.087296 164.048218,91.169273 167.899582,100.318886 
	C171.925186,91.027054 175.545929,82.669716 179.922836,74.127213 
	C185.774872,73.962517 190.870728,73.982979 195.966583,74.003441 
z"/>
<path fill="#049B9D" opacity="1.000000" stroke="none" 
	d="
M274.827026,116.073303 
	C270.064423,107.836327 265.301788,99.599342 260.539185,91.362358 
	C260.217285,91.383942 259.895386,91.405518 259.573486,91.427094 
	C259.573486,100.065018 259.573486,108.702934 258.984497,117.349586 
	C255.640121,117.236252 252.884766,117.114189 250.129410,116.992126 
	C250.084183,102.973030 250.038956,88.953934 250.520599,74.469177 
	C256.049194,73.997070 261.050903,73.990616 266.052643,73.984161 
	C270.881775,82.383614 275.710907,90.783066 281.145569,98.774231 
	C281.871155,89.661980 281.991180,80.958023 282.111206,72.254074 
	C284.892853,72.254074 287.674500,72.254074 291.002686,72.254074 
	C291.002686,86.982948 291.002686,101.516632 290.491760,116.539650 
	C285.183716,117.293396 280.386597,117.557816 275.589447,117.822235 
	C275.589447,117.822235 275.283722,117.612221 275.379578,117.207741 
	C275.259277,116.559944 275.043152,116.316628 274.827026,116.073303 
z"/>
<path fill="#069B9D" opacity="1.000000" stroke="none" 
	d="
M46.341129,110.745453 
	C48.438248,109.371735 50.126282,108.035873 51.814316,106.700020 
	C50.358829,105.276665 49.124599,103.444679 47.403118,102.512581 
	C43.473171,100.384720 39.163376,98.949326 35.269985,96.765388 
	C30.742426,94.225716 28.352499,90.013100 28.556059,84.800781 
	C28.762476,79.515274 31.742369,75.919029 36.487217,73.660614 
	C44.712231,69.745728 53.021759,71.227180 61.638039,72.976830 
	C61.638039,75.869560 61.638039,78.622925 61.638039,81.326157 
	C57.114681,80.712585 52.588001,79.669258 48.064373,79.682320 
	C46.070988,79.688087 44.083805,81.840508 42.093807,83.018318 
	C43.483105,84.473862 44.637936,86.331200 46.307941,87.305695 
	C50.457653,89.727180 55.064392,91.401794 59.087170,93.997032 
	C67.917503,99.693779 67.481354,111.329117 58.317635,116.471298 
	C49.217056,121.578041 39.685581,119.846748 29.936165,117.931770 
	C29.936165,114.823318 29.936165,111.944473 29.936165,109.185455 
	C35.455746,109.736816 40.693897,110.260063 46.341129,110.745453 
z"/>
<path fill="#069B9D" opacity="1.000000" stroke="none" 
	d="
M327.488525,116.611053 
	C318.049561,121.346649 308.773346,119.848396 299.278137,117.868118 
	C299.278137,114.606949 299.278137,111.670677 299.278137,109.034500 
	C304.555847,109.649162 309.648529,110.665878 314.733826,110.630119 
	C316.825287,110.615410 318.900787,108.334473 320.983551,107.084351 
	C319.377258,105.429863 318.030273,103.326492 316.109344,102.216614 
	C312.389160,100.067207 308.128510,98.830307 304.479706,96.584938 
	C295.677948,91.168640 296.048645,79.143890 305.096436,74.133583 
	C313.456635,69.504044 322.164917,71.197807 331.090454,73.042770 
	C331.090454,75.952217 331.090454,78.703033 331.090454,81.298683 
	C326.481354,80.708649 321.932831,79.701950 317.392792,79.738823 
	C315.370056,79.755257 313.364380,81.872803 311.350952,83.036713 
	C312.889374,84.507523 314.221191,86.332657 316.009247,87.375420 
	C319.732697,89.546844 323.821960,91.092232 327.538910,93.273232 
	C337.045258,98.851318 337.117554,110.271935 327.488525,116.611053 
z"/>
<path fill="#079C9E" opacity="1.000000" stroke="none" 
	d="
M129.977646,72.330315 
	C130.439804,74.942268 130.901962,77.554222 131.484802,80.848183 
	C124.064880,80.848183 117.348572,80.848183 110.409958,80.848183 
	C110.409958,84.382530 110.409958,87.320107 110.409958,90.826889 
	C116.012230,90.826889 121.727768,90.826889 127.719597,90.826889 
	C127.719597,93.767624 127.719597,96.149094 127.719597,98.940170 
	C121.991142,98.940170 116.400017,98.940170 110.491821,98.940170 
	C110.491821,102.575424 110.491821,105.820114 110.491821,109.715157 
	C117.234138,109.715157 124.100105,109.715157 131.312714,109.715157 
	C131.312714,112.651344 131.312714,114.947388 130.815491,117.286713 
	C119.209816,117.415741 108.101387,117.501488 96.929138,117.805641 
	C96.865318,118.024055 96.853241,118.478981 96.853241,118.478981 
	C96.638107,114.910828 96.258125,111.343597 96.238258,107.774361 
	C96.174751,96.363457 96.244797,84.951797 96.799988,73.482925 
	C107.680420,73.599686 118.023964,73.798317 128.368423,73.878227 
	C128.900818,73.882339 129.441055,72.869621 129.977646,72.330315 
z"/>
<path fill="#089C9E" opacity="1.000000" stroke="none" 
	d="
M208.030899,118.488434 
	C207.701492,117.834328 207.084091,117.179825 207.084976,116.526184 
	C207.104996,101.900871 207.193085,87.275650 207.771179,72.859558 
	C208.819824,73.368538 209.364059,73.926582 209.911591,73.929810 
	C219.447266,73.985947 228.983810,74.016777 238.518661,73.913147 
	C239.510330,73.902374 240.492355,73.005913 241.478867,72.520401 
	C241.664169,75.113884 241.849472,77.707375 242.073517,80.843002 
	C234.881149,80.843002 228.152740,80.843002 221.185165,80.843002 
	C221.185165,84.416893 221.185165,87.476692 221.185165,91.036118 
	C227.069611,91.036118 232.801788,91.036118 238.755280,91.036118 
	C238.755280,93.786407 238.755280,96.045967 238.755280,98.822922 
	C233.026947,98.822922 227.298309,98.822922 221.255615,98.822922 
	C221.255615,102.691704 221.255615,106.055023 221.255615,109.855843 
	C228.175476,109.855843 234.918350,109.855843 242.103470,109.855843 
	C242.103470,112.218178 242.103470,114.156181 241.555389,116.545547 
	C231.591904,116.996902 222.175507,116.928337 212.762039,117.063797 
	C211.178497,117.086586 209.607620,117.991241 208.030899,118.488434 
z"/>
<path fill="#099C9E" opacity="1.000000" stroke="none" 
	d="
M85.888443,74.016968 
	C85.921051,88.028641 85.953667,102.040306 85.479546,116.538757 
	C82.141586,117.031731 79.292847,116.842133 76.483528,117.093338 
	C72.922394,117.411781 71.930130,115.967628 71.983421,112.528046 
	C72.161423,101.039162 72.036179,89.545761 72.072838,78.054237 
	C72.076866,76.791634 72.376297,75.529961 72.571007,74.016968 
	C77.258682,74.016968 81.573563,74.016968 85.888443,74.016968 
z"/>
<path fill="#27A2A4" opacity="1.000000" stroke="none" 
	d="
M85.926544,73.586380 
	C81.573563,74.016968 77.258682,74.016968 72.571007,74.016968 
	C72.376297,75.529961 72.076866,76.791634 72.072838,78.054237 
	C72.036179,89.545761 72.161423,101.039162 71.983421,112.528046 
	C71.930130,115.967628 72.922394,117.411781 76.483528,117.093338 
	C79.292847,116.842133 82.141586,117.031731 85.431107,117.004089 
	C85.200592,117.615295 84.535027,118.762794 83.819115,118.795120 
	C79.862610,118.973785 75.893837,118.880623 71.567116,118.880623 
	C71.567116,103.313995 71.567116,88.114555 71.567116,71.667938 
	C76.319092,72.159012 81.141869,72.657394 85.926544,73.586380 
z"/>
<path fill="#008E90" opacity="1.000000" stroke="none" 
	d="
M208.484467,118.602165 
	C209.607620,117.991241 211.178497,117.086586 212.762039,117.063797 
	C222.175507,116.928337 231.591904,116.996902 241.471664,116.996971 
	C241.977112,117.172554 242.018219,117.348091 241.777496,117.813843 
	C241.278595,118.203613 241.124207,118.363655 241.032516,118.584183 
	C230.334366,118.628090 219.636200,118.671997 208.484467,118.602165 
z"/>
<path fill="#008E90" opacity="1.000000" stroke="none" 
	d="
M96.992950,117.587227 
	C108.101387,117.501488 119.209816,117.415741 130.618622,117.608063 
	C130.918991,117.886124 131.027527,117.914253 130.801270,117.996620 
	C130.259186,118.169312 130.039597,118.366684 129.916245,118.671112 
	C119.612236,118.695587 109.308220,118.720062 98.394112,118.497177 
	C97.520325,118.028961 97.256638,117.808098 96.992950,117.587227 
z"/>
<path fill="#008E90" opacity="1.000000" stroke="none" 
	d="
M241.435272,72.514053 
	C240.492355,73.005913 239.510330,73.902374 238.518661,73.913147 
	C228.983810,74.016777 219.447266,73.985947 209.911591,73.929810 
	C209.364059,73.926582 208.819824,73.368538 208.150070,72.702171 
	C218.382919,72.271194 228.739731,72.206749 239.738556,72.390778 
	C240.380554,72.639236 240.866257,72.737679 240.866257,72.737679 
	C240.866257,72.737679 241.303635,72.504166 241.303635,72.504166 
	C241.303635,72.504166 241.391678,72.507713 241.435272,72.514053 
z"/>
<path fill="#008E90" opacity="1.000000" stroke="none" 
	d="
M129.518707,72.238770 
	C129.441055,72.869621 128.900818,73.882339 128.368423,73.878227 
	C118.023964,73.798317 107.680420,73.599686 97.013901,73.116829 
	C96.691116,72.808250 96.728783,72.821243 96.983124,72.829865 
	C97.564606,72.767723 97.812378,72.587738 97.980782,72.298538 
	C108.340446,72.248100 118.700119,72.197670 129.518707,72.238770 
z"/>
<path fill="#159B9E" opacity="1.000000" stroke="none" 
	d="
M196.002686,73.571182 
	C190.870728,73.982979 185.774872,73.962517 180.192963,73.913033 
	C179.893814,73.425758 180.091339,72.563385 180.266129,72.567963 
	C185.525070,72.705704 190.781754,72.929024 196.002686,73.571182 
z"/>
<path fill="#079597" opacity="1.000000" stroke="none" 
	d="
M265.939026,73.588409 
	C261.050903,73.990616 256.049194,73.997070 250.589081,74.005417 
	C250.279831,73.431435 250.450836,72.347519 250.574997,72.352852 
	C255.661102,72.571594 260.743011,72.888329 265.939026,73.588409 
z"/>
<path fill="#27A2A4" opacity="1.000000" stroke="none" 
	d="
M275.825562,118.126938 
	C280.386597,117.557816 285.183716,117.293396 290.441284,117.004669 
	C290.385803,117.606178 289.870575,118.772308 289.353821,118.772980 
	C284.923279,118.778770 280.492462,118.573692 275.825562,118.126938 
z"/>
<path fill="#50B8BA" opacity="1.000000" stroke="none" 
	d="
M281.719055,72.404297 
	C281.991180,80.958023 281.871155,89.661980 281.520447,98.706673 
	C281.302185,90.216446 281.314575,81.385483 281.719055,72.404297 
z"/>
<path fill="#079597" opacity="1.000000" stroke="none" 
	d="
M250.073410,117.408516 
	C252.884766,117.114189 255.640121,117.236252 258.686646,117.626297 
	C255.991013,117.871147 253.004211,117.848022 250.073410,117.408516 
z"/>
<path fill="#079C9E" opacity="1.000000" stroke="none" 
	d="
M97.727036,72.229713 
	C97.812378,72.587738 97.564606,72.767723 97.000916,72.822350 
	C97.000671,72.591095 97.236977,72.375992 97.727036,72.229713 
z"/>
<path fill="#089C9E" opacity="1.000000" stroke="none" 
	d="
M241.124603,72.349380 
	C241.303635,72.504166 240.866257,72.737679 240.866257,72.737679 
	C240.866257,72.737679 240.380554,72.639236 240.202789,72.468155 
	C240.315918,72.118927 240.622757,72.084763 241.124603,72.349380 
z"/>
<path fill="#27A2A4" opacity="1.000000" stroke="none" 
	d="
M274.831665,116.286591 
	C275.043152,116.316628 275.259277,116.559944 275.338379,117.026917 
	C274.976898,117.050301 274.855225,116.800064 274.831665,116.286591 
z"/>
<path fill="#50B8BA" opacity="1.000000" stroke="none" 
	d="
M96.929138,117.805641 
	C97.256638,117.808098 97.520325,118.028961 97.932442,118.459518 
	C97.864151,118.716347 97.647438,118.763481 97.141983,118.644798 
	C96.853241,118.478981 96.865318,118.024055 96.929138,117.805641 
z"/>
<path fill="#50B8BA" opacity="1.000000" stroke="none" 
	d="
M130.179718,118.760391 
	C130.039597,118.366684 130.259186,118.169312 130.801758,118.052673 
	C130.833389,118.300797 130.638290,118.575226 130.179718,118.760391 
z"/>
<path fill="#089C9E" opacity="1.000000" stroke="none" 
	d="
M241.248413,118.669464 
	C241.124207,118.363655 241.278595,118.203613 241.658813,118.056831 
	C241.956375,118.379745 241.837158,118.628128 241.248413,118.669464 
z"/>
</svg>